<?xml version="1.0" encoding="UTF-8" standalone="no"?>
<!-- Created with Inkscape (http://www.inkscape.org/) -->

<svg
   width="32"
   height="32"
   viewBox="0 0 8.4666659 8.4666659"
   version="1.1"
   id="svg865"
   inkscape:version="1.3 (0e150ed6c4, 2023-07-21)"
   sodipodi:docname="favicon.svg"
   inkscape:export-filename="favicon.png"
   inkscape:export-xdpi="1536"
   inkscape:export-ydpi="1536"
   xmlns:inkscape="http://www.inkscape.org/namespaces/inkscape"
   xmlns:sodipodi="http://sodipodi.sourceforge.net/DTD/sodipodi-0.dtd"
   xmlns:xlink="http://www.w3.org/1999/xlink"
   xmlns="http://www.w3.org/2000/svg"
   xmlns:svg="http://www.w3.org/2000/svg">
  <sodipodi:namedview
     id="namedview867"
     pagecolor="#505050"
     bordercolor="#eeeeee"
     borderopacity="1"
     inkscape:pageshadow="0"
     inkscape:pageopacity="0"
     inkscape:pagecheckerboard="0"
     inkscape:document-units="px"
     showgrid="false"
     units="px"
     inkscape:object-paths="true"
     inkscape:snap-bbox="true"
     inkscape:bbox-paths="true"
     inkscape:bbox-nodes="true"
     inkscape:snap-bbox-edge-midpoints="true"
     inkscape:snap-bbox-midpoints="true"
     inkscape:snap-object-midpoints="true"
     inkscape:snap-center="true"
     inkscape:snap-smooth-nodes="true"
     inkscape:snap-midpoints="true"
     inkscape:snap-intersection-paths="true"
     showguides="true"
     inkscape:guide-bbox="true"
     inkscape:zoom="0.12724549"
     inkscape:cx="-640.49421"
     inkscape:cy="510.82361"
     inkscape:window-width="1600"
     inkscape:window-height="878"
     inkscape:window-x="-8"
     inkscape:window-y="-8"
     inkscape:window-maximized="1"
     inkscape:current-layer="layer1"
     inkscape:showpageshadow="2"
     inkscape:deskcolor="#d1d1d1">
    <sodipodi:guide
       position="4.2333331,4.2333328"
       orientation="0,-1"
       id="guide1711"
       inkscape:locked="false" />
  </sodipodi:namedview>
  <defs
     id="defs862">
    <color-profile
       name="sRGB-IEC61966-2.1"
       xlink:href="../../../../../WINDOWS/system32/spool/drivers/color/sRGB%20Color%20Space%20Profile.icm"
       id="color-profile3" />
    <color-profile
       name="Agfa-:-Swop-Standard"
       xlink:href="../../../../../WINDOWS/system32/spool/drivers/color/RSWOP.icm"
       id="color-profile4" />
  </defs>
  <g
     inkscape:label="Слой 1"
     inkscape:groupmode="layer"
     id="layer1">
    <path
       style="fill:#f45d01;fill-opacity:1;stroke:none;stroke-width:0.089053;stroke-linecap:round;stroke-linejoin:round;paint-order:stroke fill markers"
       d="M 4.2333345,0.33851011 0.86032053,2.2859212 4.2333345,4.2333323 7.6063251,2.2859445 Z"
       id="path1796" />
    <path
       style="fill:#ad4301;fill-opacity:1;stroke:none;stroke-width:0.0584847;stroke-linecap:round;stroke-linejoin:round;stroke-dasharray:none;stroke-opacity:1;paint-order:stroke fill markers"
       d="M 7.6063485,2.2859212 4.2333345,4.2333323 V 8.1281299 L 7.6063485,6.1807435 Z"
       id="path1786" />
    <path
       style="fill:#ad4301;fill-opacity:1;stroke:none;stroke-width:0.0584847;stroke-linecap:round;stroke-linejoin:round;stroke-dasharray:none;stroke-opacity:1;paint-order:stroke fill markers"
       d="M 0.86032053,2.2859212 4.2333345,4.2333323 V 8.1281299 L 0.86032053,6.1807435 Z"
       id="path1785" />
    <path
       style="fill:none;stroke:#000000;stroke-width:0.0515253;stroke-linecap:round;stroke-linejoin:round;stroke-dasharray:none;stroke-opacity:1;paint-order:stroke fill markers"
       d="M 0.86032053,2.2859212 4.2333345,4.2333323"
       id="path828"
       sodipodi:nodetypes="cc" />
    <path
       style="fill:none;stroke:#000000;stroke-width:0.0515253;stroke-linecap:round;stroke-linejoin:round;stroke-dasharray:none;stroke-opacity:1;paint-order:stroke fill markers"
       d="M 7.6063485,2.2859212 4.2333345,4.2333323"
       id="path829"
       sodipodi:nodetypes="cc" />
    <path
       d="m 2.8842002,1.7291523 v 0.556721 c -2.33e-5,0.039713 0.00453,0.079414 0.013618,0.1187382 0.00907,0.039338 0.022701,0.078209 0.040866,0.1163283 0.018166,0.038068 0.040555,0.075255 0.067221,0.1113139 0.026717,0.036137 0.057594,0.071043 0.092384,0.1044466 0.034725,0.033377 0.073272,0.065213 0.1153306,0.095208 0.042058,0.030034 0.087512,0.058112 0.1360437,0.084117 0.048576,0.026069 0.100106,0.049949 0.1541809,0.071471 0.054031,0.021509 0.1104458,0.040478 0.1688781,0.056946 0.058501,0.016494 0.1188419,0.030307 0.1805394,0.041463 0.061611,0.011273 0.1244005,0.019591 0.1879716,0.025357 0.063606,0.0057 0.1277693,0.00842 0.192009,0.00842 0.064254,2.34e-5 0.1284172,-0.00259 0.1920103,-0.00842 0.063632,-0.0057 0.1265384,-0.014097 0.1881867,-0.025357 0.061624,-0.011273 0.1218997,-0.024994 0.1803476,-0.041463 0.058397,-0.016494 0.1148512,-0.035515 0.1688781,-0.056946 0.054083,-0.021509 0.1055998,-0.045402 0.1541576,-0.071471 0.048537,-0.026005 0.094016,-0.054109 0.136067,-0.084117 0.042058,-0.029996 0.080606,-0.061818 0.1153306,-0.095208 0.034764,-0.033403 0.06564,-0.068322 0.092384,-0.1044466 0.026666,-0.036059 0.049133,-0.073272 0.067221,-0.1113139 0.018166,-0.03812 0.031732,-0.076991 0.040866,-0.1163283 0.00907,-0.039338 0.013864,-0.079025 0.013864,-0.1187382 v -0.556721 c -4.79e-5,0.039662 -0.00479,0.079284 -0.013864,0.1185569 -0.00907,0.039338 -0.022701,0.078209 -0.040866,0.1163282 -0.00764,0.013864 -0.015769,0.027391 -0.024541,0.040866 -0.012439,0.023893 -0.026717,0.047513 -0.042681,0.070642 -0.026717,0.03615 -0.057594,0.071044 -0.092384,0.1044467 -0.034725,0.033377 -0.073272,0.065213 -0.1153306,0.095208 -0.042033,0.030034 -0.087512,0.058112 -0.1360437,0.084143 -0.048576,0.025979 -0.100106,0.049794 -0.1541809,0.071238 -0.054031,0.021509 -0.1104458,0.040478 -0.1688548,0.056972 -0.058449,0.016494 -0.1186994,0.030449 -0.1803476,0.041657 -0.061675,0.011273 -0.124556,0.019591 -0.1881867,0.025357 -0.063593,0.0057 -0.1277693,0.00842 -0.192009,0.00842 -0.064254,0 -0.1284171,-0.00259 -0.1920103,-0.00842 C 3.9776896,2.5488661 3.914861,2.5404699 3.8532619,2.5292103 3.7915605,2.5179377 3.7312196,2.5040995 3.6727225,2.4875534 3.6143122,2.4710591 3.5578973,2.4520252 3.503869,2.4305813 3.4497864,2.4090727 3.3982692,2.3853224 3.3496868,2.3593436 3.3011498,2.3333258 3.2556835,2.305222 3.2136431,2.2752006 3.1715587,2.245205 3.1330115,2.2134085 3.0982996,2.1799923 3.0635229,2.1465891 3.0326593,2.1116699 3.005916,2.0755456 2.990627,2.0533246 2.976957,2.0305456 2.964868,2.0075086 2.955538,1.9931646 2.946702,1.9786916 2.938695,1.9640376 2.920529,1.9259046 2.906963,1.8870466 2.897828,1.8477094 2.888758,1.8084494 2.88421,1.7688274 2.88421,1.7291525 Z"
       style="fill:#ad4301;fill-opacity:1;stroke:#000000;stroke-width:0.0515253;stroke-linecap:round;stroke-linejoin:round;stroke-dasharray:none;stroke-opacity:1;paint-order:stroke fill markers"
       id="path830" />
    <ellipse
       style="fill:none;stroke:#000000;stroke-width:0.0515253;stroke-linecap:round;stroke-linejoin:round;stroke-dasharray:none;stroke-opacity:1;paint-order:stroke fill markers"
       id="ellipse830"
       cx="4.2333388"
       cy="1.7305179"
       rx="1.3492033"
       ry="0.83385342" />
    <path
       style="fill:#eeb902;fill-opacity:1;stroke:#000000;stroke-width:0.126453;stroke-linecap:round;stroke-linejoin:round;stroke-dasharray:none;stroke-opacity:1;paint-order:stroke fill markers"
       d="M 0.86032053,2.2859212 4.2333345,0.33853344"
       id="path831" />
    <path
       style="fill:#eeb902;fill-opacity:1;stroke:#000000;stroke-width:0.126453;stroke-linecap:round;stroke-linejoin:round;stroke-dasharray:none;stroke-opacity:1;paint-order:stroke fill markers"
       d="M 7.6063485,2.2859212 4.2333345,0.33853344"
       id="path832" />
    <path
       style="fill:#eeb902;fill-opacity:1;stroke:#000000;stroke-width:0.126453;stroke-linecap:round;stroke-linejoin:round;stroke-dasharray:none;stroke-opacity:1;paint-order:stroke fill markers"
       d="M 0.86032053,2.2859212 V 6.1807435"
       id="path1440" />
    <path
       style="fill:#eeb902;fill-opacity:1;stroke:#000000;stroke-width:0.0515253;stroke-linecap:round;stroke-linejoin:round;stroke-dasharray:none;stroke-opacity:1;paint-order:stroke fill markers"
       d="M 4.2333345,4.2333323 V 8.1281299"
       id="path1441" />
    <path
       style="fill:#eeb902;fill-opacity:1;stroke:#000000;stroke-width:0.126453;stroke-linecap:round;stroke-linejoin:round;stroke-dasharray:none;stroke-opacity:1;paint-order:stroke fill markers"
       d="M 0.86032053,6.1807435 4.2333345,8.1281299"
       id="path1442" />
    <path
       style="fill:#eeb902;fill-opacity:1;stroke:#000000;stroke-width:0.126453;stroke-linecap:round;stroke-linejoin:round;stroke-dasharray:none;stroke-opacity:1;paint-order:stroke fill markers"
       d="M 7.6063485,2.2859212 V 6.1807435"
       id="path1448" />
    <path
       style="fill:#eeb902;fill-opacity:1;stroke:#000000;stroke-width:0.126453;stroke-linecap:round;stroke-linejoin:round;stroke-dasharray:none;stroke-opacity:1;paint-order:stroke fill markers"
       d="M 4.2333345,8.1281299 7.6063485,6.1807435"
       id="path1449" />
    <g
       id="g3"
       transform="translate(-8.1395208,-12.635364)">
      <g
         id="g1807"
         inkscape:export-filename="collapse\icons\apple-touch-icon.png"
         inkscape:export-xdpi="96"
         inkscape:export-ydpi="96"
         transform="matrix(0.05917776,0,0,0.05917776,72.850718,-70.047473)">
        <rect
           style="fill:#eeb902;fill-opacity:1;stroke:none;stroke-width:1.31438;stroke-linecap:square;stroke-linejoin:miter;stroke-dasharray:none;stroke-opacity:1;paint-order:fill markers stroke"
           id="rect676"
           width="134.15228"
           height="134.15228"
           x="-1317.8313"
           y="-1087.9772"
           ry="0"
           inkscape:export-filename="collapse\icons\apple-touch-icon.png"
           inkscape:export-xdpi="34.080002"
           inkscape:export-ydpi="34.080002"
           transform="rotate(-90)" />
        <path
           style="fill:none;fill-opacity:1;stroke:#000000;stroke-width:1.5875;stroke-linecap:round;stroke-linejoin:round;stroke-dasharray:none;stroke-opacity:1;paint-order:stroke fill markers"
           d="m -975.876,1259.2896 -14.115,8.1492 -1.41147,-0.8149 v 1.6299 l -14.11503,8.1492 -1.4114,-0.8149 v 1.6299 l -14.115,8.1492 -14.115,-8.1492 -1e-4,-1.6298 -1.4114,0.8149 -14.115,-8.1493 v -1.6299 l -1.4114,0.8149 -14.115,-8.1492 v -16.2986 l 14.115,-8.1492 1.4114,0.8148 v -1.6298 l 14.115,-8.1493 1.4115,0.8149 v -1.6298 l 14.115,-8.1493 14.115,8.1493 v 16.2985 l -14.115,8.1493 -1.4241,-0.8326 0.013,1.6475 -1.4204,0.8098 1.4204,0.8201 -10e-5,1.6299 1.4116,-0.8149 1.4115,0.8148 v -1.6298 l 14.115,-8.1492 1.4115,0.8148 -10e-5,-1.6298 14.11504,-8.1492 14.11496,8.1493 z"
           id="path1807" />
        <path
           style="fill:#ad4301;fill-opacity:1;stroke:none;stroke-width:0.215635;stroke-linecap:round;stroke-linejoin:round;stroke-dasharray:none;stroke-opacity:1;paint-order:stroke fill markers"
           d="m -1035.1589,1226.6924 v -1.6298 l 14.115,8.1493 v 16.2984 l -1.4115,-0.8251 1e-4,-14.6584 z"
           id="path1806" />
        <path
           style="fill:#ad4301;fill-opacity:1;stroke:none;stroke-width:0.24474;stroke-linecap:round;stroke-linejoin:round;stroke-dasharray:none;stroke-opacity:1;paint-order:stroke fill markers"
           d="m -1006.9289,1225.0626 -14.115,8.1493 v 16.2985 l 14.115,-8.1492 z"
           id="path1805" />
        <path
           style="fill:#ad4301;fill-opacity:1;stroke:none;stroke-width:0.215635;stroke-linecap:round;stroke-linejoin:round;stroke-dasharray:none;stroke-opacity:1;paint-order:stroke fill markers"
           d="m -1036.5704,1242.176 14.115,-8.1492 v 16.2985 l -1.4204,0.8098 -12.6946,-7.3292 z"
           id="path1804" />
        <path
           style="fill:#2d7dd2;fill-opacity:1;stroke:none;stroke-width:0.372659;stroke-linecap:round;stroke-linejoin:round;paint-order:stroke fill markers"
           d="m -1021.0439,1252.7701 -14.115,8.1493 14.115,8.1493 14.1149,-8.1492 z"
           id="path1796-8" />
        <path
           style="fill:#2d7dd2;fill-opacity:1;stroke:none;stroke-width:0.372659;stroke-linecap:round;stroke-linejoin:round;paint-order:stroke fill markers"
           d="m -1036.5704,1243.8059 -14.115,8.1493 14.115,8.1493 14.1149,-8.1492 z"
           id="path1795" />
        <path
           style="fill:#1e528a;fill-opacity:1;stroke:none;stroke-width:0.24474;stroke-linecap:round;stroke-linejoin:round;stroke-dasharray:none;stroke-opacity:1;paint-order:stroke fill markers"
           d="m -1037.982,1244.6207 v -1.6298 l -14.1149,8.1492 v 16.2986 l 1.4114,-0.8149 10e-5,-14.6686 z"
           id="path1794" />
        <path
           style="fill:#1e528a;fill-opacity:1;stroke:none;stroke-width:0.24474;stroke-linecap:round;stroke-linejoin:round;stroke-dasharray:none;stroke-opacity:1;paint-order:stroke fill markers"
           d="m -1022.4555,1253.5851 v -1.6298 l -14.1149,8.1492 v 16.2986 l 1.4114,-0.8149 1e-4,-14.6686 z"
           id="path1793" />
        <path
           style="fill:#6d9303;fill-opacity:1;stroke:none;stroke-width:0.24474;stroke-linecap:round;stroke-linejoin:round;stroke-dasharray:none;stroke-opacity:1;paint-order:stroke fill markers"
           d="m -1019.6324,1253.585 v -1.6298 l 14.1149,8.1492 v 16.2986 l -1.4114,-0.8149 -10e-5,-14.6686 z"
           id="path1792" />
        <path
           style="fill:#6d9303;fill-opacity:1;stroke:none;stroke-width:0.24474;stroke-linecap:round;stroke-linejoin:round;stroke-dasharray:none;stroke-opacity:1;paint-order:stroke fill markers"
           d="m -1004.1059,1244.6208 v -1.6298 l 14.11492,8.1492 v 16.2986 l -1.41148,-0.8149 -2e-5,-14.6686 z"
           id="path1791" />
        <path
           style="fill:#97cc04;fill-opacity:1;stroke-width:0.372659;stroke-linecap:round;stroke-linejoin:round;paint-order:stroke fill markers"
           d="m -1019.6324,1251.9552 14.115,-8.1492 14.11493,8.1493 -14.11493,8.1492 z"
           id="path1790" />
        <path
           style="fill:#97cc04;fill-opacity:1;stroke-width:0.372659;stroke-linecap:round;stroke-linejoin:round;paint-order:stroke fill markers"
           d="m -1004.1059,1242.991 14.11495,-8.1492 14.11496,8.1493 -14.11496,8.1492 z"
           id="path1789" />
        <path
           style="fill:#6d9303;fill-opacity:1;stroke:none;stroke-width:0.24474;stroke-linecap:round;stroke-linejoin:round;stroke-dasharray:none;stroke-opacity:1;paint-order:stroke fill markers"
           d="m -991.40245,1251.9552 -14.11495,8.1493 v 16.2985 l 14.11495,-8.1492 z"
           id="path1787" />
        <path
           style="fill:#1e528a;fill-opacity:1;stroke:none;stroke-width:0.24474;stroke-linecap:round;stroke-linejoin:round;stroke-dasharray:none;stroke-opacity:1;paint-order:stroke fill markers"
           d="m -1006.9289,1260.9194 -14.115,8.1493 v 16.2985 l 14.115,-8.1492 z"
           id="path1786-2" />
        <path
           style="fill:#1e528a;fill-opacity:1;stroke:none;stroke-width:0.24474;stroke-linecap:round;stroke-linejoin:round;stroke-dasharray:none;stroke-opacity:1;paint-order:stroke fill markers"
           d="m -1035.1589,1260.9194 14.115,8.1493 v 16.2985 l -14.115,-8.1492 z"
           id="path1785-3" />
        <path
           style="fill:#1e528a;fill-opacity:1;stroke:none;stroke-width:0.24474;stroke-linecap:round;stroke-linejoin:round;stroke-dasharray:none;stroke-opacity:1;paint-order:stroke fill markers"
           d="m -1050.6854,1251.9552 14.115,8.1493 v 16.2985 l -14.115,-8.1492 z"
           id="path1784" />
        <path
           style="fill:#1e528a;fill-opacity:1;stroke:none;stroke-width:0.24474;stroke-linecap:round;stroke-linejoin:round;stroke-dasharray:none;stroke-opacity:1;paint-order:stroke fill markers"
           d="m -1066.2118,1242.991 14.115,8.1493 v 16.2985 l -14.115,-8.1492 z"
           id="path1783" />
        <path
           style="fill:#2d7dd2;fill-opacity:1;stroke:none;stroke-width:0.372659;stroke-linecap:round;stroke-linejoin:round;paint-order:stroke fill markers"
           d="m -1052.0968,1234.8418 -14.115,8.1492 14.115,8.1493 14.1149,-8.1492 z"
           id="path1782" />
        <path
           style="fill:#ad4301;fill-opacity:1;stroke-width:0.466286;stroke-linecap:round;stroke-linejoin:round;paint-order:stroke fill markers"
           d="m -1050.6854,1234.0267 v 1.6299 l 12.7035,7.3344 v 1.6298 l 1.4115,-0.8149 v -1.6299 z"
           id="path1780" />
        <path
           style="fill:#f45d01;fill-opacity:1;stroke-width:0.372659;stroke-linecap:round;stroke-linejoin:round;paint-order:stroke fill markers"
           d="m -1036.5704,1225.8775 -14.115,8.1493 14.115,8.1492 14.1151,-8.1492 z"
           id="path1779" />
        <path
           style="fill:#f45d01;fill-opacity:1;stroke-width:0.372659;stroke-linecap:round;stroke-linejoin:round;paint-order:stroke fill markers"
           d="m -1021.0439,1216.9133 -14.115,8.1493 14.115,8.1492 14.115,-8.1492 z"
           id="path695" />
        <path
           style="fill:none;stroke:#000000;stroke-width:0.215617;stroke-linecap:round;stroke-linejoin:round;stroke-dasharray:none;stroke-opacity:1;paint-order:stroke fill markers"
           d="m -1066.2118,1242.991 14.115,8.1493"
           id="path788"
           sodipodi:nodetypes="cc" />
        <path
           style="fill:none;stroke:#000000;stroke-width:0.215617;stroke-linecap:round;stroke-linejoin:round;stroke-dasharray:none;stroke-opacity:1;paint-order:stroke fill markers"
           d="m -1037.9819,1242.991 -14.1149,8.1493"
           id="path789"
           sodipodi:nodetypes="cc" />
        <path
           d="m -1057.7426,1240.6611 v 2.3296 c -10e-5,0.1663 0.019,0.3324 0.057,0.497 0.038,0.1645 0.095,0.3272 0.171,0.4868 0.076,0.1592 0.1697,0.3148 0.2813,0.4657 0.1118,0.1513 0.2411,0.2973 0.3866,0.4372 0.1454,0.1396 0.3066,0.2728 0.4826,0.3984 0.176,0.1256 0.3663,0.2432 0.5694,0.352 0.2032,0.109 0.4188,0.209 0.6451,0.299 0.2261,0.09 0.4623,0.1694 0.7067,0.2384 0.2448,0.069 0.4973,0.1268 0.7555,0.1735 0.2578,0.047 0.5207,0.082 0.7867,0.1061 0.2661,0.024 0.5346,0.035 0.8035,0.035 0.2688,0 0.5373,-0.011 0.8035,-0.035 0.2662,-0.024 0.5294,-0.059 0.7875,-0.1061 0.2579,-0.047 0.5101,-0.1047 0.7546,-0.1735 0.2445,-0.069 0.4806,-0.1487 0.7067,-0.2384 0.2263,-0.09 0.4419,-0.1899 0.6452,-0.299 0.203,-0.1089 0.3933,-0.2265 0.5693,-0.352 0.176,-0.1255 0.3373,-0.2587 0.4826,-0.3984 0.1456,-0.1399 0.2748,-0.2859 0.3866,-0.4372 0.1117,-0.1509 0.2056,-0.3065 0.2813,-0.4657 0.076,-0.1596 0.1329,-0.3223 0.171,-0.4868 0.039,-0.1646 0.058,-0.3307 0.058,-0.497 v -2.3296 c -3e-4,0.166 -0.02,0.3317 -0.058,0.496 -0.038,0.1646 -0.095,0.3273 -0.171,0.4869 -0.032,0.058 -0.066,0.1145 -0.1027,0.1709 -0.052,0.1001 -0.1118,0.1988 -0.1785,0.2957 -0.1118,0.1512 -0.2411,0.2973 -0.3866,0.4371 -0.1454,0.1397 -0.3066,0.2729 -0.4826,0.3984 -0.176,0.1256 -0.3663,0.2432 -0.5694,0.352 -0.2033,0.1087 -0.4189,0.2084 -0.6452,0.2982 -0.226,0.09 -0.4622,0.1694 -0.7066,0.2384 -0.2445,0.069 -0.4967,0.1274 -0.7547,0.1743 -0.258,0.047 -0.5212,0.082 -0.7875,0.1061 -0.2661,0.024 -0.5346,0.035 -0.8035,0.035 -0.2688,10e-5 -0.5373,-0.011 -0.8035,-0.035 -0.266,-0.024 -0.5288,-0.059 -0.7867,-0.1061 -0.2582,-0.047 -0.5107,-0.1051 -0.7554,-0.1743 -0.2445,-0.069 -0.4806,-0.1487 -0.7067,-0.2384 -0.2263,-0.09 -0.4419,-0.1894 -0.6452,-0.2982 -0.2031,-0.1088 -0.3933,-0.2264 -0.5693,-0.352 -0.176,-0.1255 -0.3373,-0.2587 -0.4826,-0.3984 -0.1456,-0.1398 -0.2748,-0.2859 -0.3866,-0.4371 -0.064,-0.093 -0.1213,-0.1883 -0.1718,-0.2847 -0.039,-0.06 -0.076,-0.1206 -0.1096,-0.1819 -0.076,-0.1596 -0.1328,-0.3223 -0.1709,-0.4869 -0.038,-0.1643 -0.057,-0.3301 -0.057,-0.496 z"
           style="fill:#1e528a;fill-opacity:1;stroke:#000000;stroke-width:0.215617;stroke-linecap:round;stroke-linejoin:round;stroke-dasharray:none;stroke-opacity:1;paint-order:stroke fill markers"
           id="path790" />
        <ellipse
           style="fill:none;stroke:#000000;stroke-width:0.215617;stroke-linecap:round;stroke-linejoin:round;stroke-dasharray:none;stroke-opacity:1;paint-order:stroke fill markers"
           id="ellipse790"
           cx="-1052.0969"
           cy="1240.6667"
           rx="5.6459899"
           ry="3.4894133" />
        <path
           style="fill:#eeb902;fill-opacity:1;stroke:#000000;stroke-width:0.215617;stroke-linecap:round;stroke-linejoin:round;stroke-dasharray:none;stroke-opacity:1;paint-order:stroke fill markers"
           d="m -1066.2118,1242.991 14.1149,-8.1493"
           id="path791" />
        <path
           style="fill:#eeb902;fill-opacity:1;stroke:#000000;stroke-width:0.529167;stroke-linecap:round;stroke-linejoin:round;stroke-dasharray:none;stroke-opacity:1;paint-order:stroke fill markers"
           d="m -1037.9819,1242.991 -14.115,-8.1493"
           id="path792" />
        <path
           style="fill:none;stroke:#000000;stroke-width:0.215617;stroke-linecap:round;stroke-linejoin:round;stroke-dasharray:none;stroke-opacity:1;paint-order:stroke fill markers"
           d="m -1050.6853,1234.0268 14.1149,8.1492"
           id="path793"
           sodipodi:nodetypes="cc" />
        <path
           style="fill:none;stroke:#000000;stroke-width:0.215617;stroke-linecap:round;stroke-linejoin:round;stroke-dasharray:none;stroke-opacity:1;paint-order:stroke fill markers"
           d="m -1022.4554,1234.0268 -14.115,8.1492"
           id="path794"
           sodipodi:nodetypes="cc" />
        <path
           d="m -1042.2161,1231.6968 v 2.3297 c -10e-5,0.1663 0.019,0.3323 0.057,0.4969 0.038,0.1646 0.095,0.3273 0.171,0.4869 0.076,0.1592 0.1697,0.3148 0.2813,0.4657 0.1118,0.1513 0.241,0.2973 0.3866,0.4372 0.1454,0.1396 0.3066,0.2728 0.4826,0.3983 0.176,0.1257 0.3663,0.2433 0.5694,0.3521 0.2032,0.109 0.4188,0.209 0.6451,0.299 0.2261,0.09 0.4623,0.1694 0.7067,0.2384 0.2448,0.069 0.4973,0.1268 0.7555,0.1735 0.2578,0.047 0.5207,0.082 0.7866,0.1061 0.2662,0.024 0.5347,0.035 0.8035,0.035 0.2689,0 0.5374,-0.011 0.8036,-0.035 0.2662,-0.024 0.5294,-0.059 0.7875,-0.1061 0.2579,-0.047 0.5101,-0.1047 0.7546,-0.1735 0.2445,-0.069 0.4806,-0.1487 0.7067,-0.2384 0.2263,-0.09 0.4419,-0.19 0.6451,-0.299 0.2031,-0.1089 0.3934,-0.2265 0.5694,-0.3521 0.176,-0.1255 0.3373,-0.2586 0.4826,-0.3983 0.1456,-0.1399 0.2748,-0.286 0.3866,-0.4372 0.1116,-0.1509 0.2056,-0.3066 0.2813,-0.4657 0.076,-0.1596 0.1329,-0.3223 0.171,-0.4869 0.038,-0.1645 0.058,-0.3306 0.058,-0.4969 v -2.3297 c -2e-4,0.166 -0.02,0.3318 -0.058,0.4961 -0.038,0.1646 -0.095,0.3273 -0.171,0.4868 -0.032,0.058 -0.066,0.1146 -0.1027,0.171 -0.052,0.1001 -0.1118,0.1988 -0.1785,0.2957 -0.1118,0.1512 -0.2411,0.2972 -0.3866,0.4371 -0.1454,0.1397 -0.3066,0.2728 -0.4826,0.3984 -0.176,0.1256 -0.3663,0.2432 -0.5694,0.352 -0.2033,0.1087 -0.4189,0.2084 -0.6452,0.2982 -0.226,0.09 -0.4622,0.1694 -0.7066,0.2383 -0.2445,0.069 -0.4967,0.1275 -0.7547,0.1744 -0.258,0.047 -0.5212,0.082 -0.7875,0.1061 -0.2661,0.024 -0.5346,0.035 -0.8035,0.035 -0.2688,10e-5 -0.5374,-0.011 -0.8035,-0.035 -0.266,-0.024 -0.5288,-0.059 -0.7867,-0.1061 -0.2582,-0.047 -0.5107,-0.1051 -0.7554,-0.1744 -0.2445,-0.069 -0.4806,-0.1486 -0.7067,-0.2383 -0.2263,-0.09 -0.4419,-0.1894 -0.6452,-0.2982 -0.2031,-0.1089 -0.3934,-0.2264 -0.5693,-0.352 -0.176,-0.1255 -0.3373,-0.2587 -0.4826,-0.3984 -0.1456,-0.1399 -0.2748,-0.2859 -0.3866,-0.4371 -0.064,-0.093 -0.1213,-0.1883 -0.1718,-0.2847 -0.039,-0.06 -0.076,-0.1206 -0.1096,-0.182 -0.076,-0.1595 -0.1328,-0.3222 -0.171,-0.4868 -0.038,-0.1643 -0.057,-0.3301 -0.057,-0.4961 z"
           style="fill:#ad4301;fill-opacity:1;stroke:#000000;stroke-width:0.215617;stroke-linecap:round;stroke-linejoin:round;stroke-dasharray:none;stroke-opacity:1;paint-order:stroke fill markers"
           id="path795" />
        <ellipse
           style="fill:none;stroke:#000000;stroke-width:0.215617;stroke-linecap:round;stroke-linejoin:round;stroke-dasharray:none;stroke-opacity:1;paint-order:stroke fill markers"
           id="ellipse795"
           cx="-1036.5703"
           cy="1231.7025"
           rx="5.6459899"
           ry="3.4894133" />
        <path
           style="fill:#eeb902;fill-opacity:1;stroke:#000000;stroke-width:0.215617;stroke-linecap:round;stroke-linejoin:round;stroke-dasharray:none;stroke-opacity:1;paint-order:stroke fill markers"
           d="m -1050.6854,1234.0268 14.115,-8.1493"
           id="path796" />
        <path
           style="fill:#eeb902;fill-opacity:1;stroke:#000000;stroke-width:0.529167;stroke-linecap:round;stroke-linejoin:round;stroke-dasharray:none;stroke-opacity:1;paint-order:stroke fill markers"
           d="m -1022.4554,1234.0268 -14.115,-8.1493"
           id="path797" />
        <path
           style="fill:none;stroke:#000000;stroke-width:0.215635;stroke-linecap:round;stroke-linejoin:round;stroke-dasharray:none;stroke-opacity:1;paint-order:stroke fill markers"
           d="m -1035.1589,1225.0626 14.115,8.1492"
           id="path808"
           sodipodi:nodetypes="cc" />
        <path
           style="fill:none;stroke:#000000;stroke-width:0.215617;stroke-linecap:round;stroke-linejoin:round;stroke-dasharray:none;stroke-opacity:1;paint-order:stroke fill markers"
           d="m -1006.9289,1225.0626 -14.115,8.1492"
           id="path809"
           sodipodi:nodetypes="cc" />
        <path
           d="m -1026.6896,1222.7326 v 2.3297 c -10e-5,0.1663 0.019,0.3323 0.057,0.4969 0.038,0.1646 0.095,0.3273 0.171,0.4869 0.076,0.1592 0.1697,0.3148 0.2813,0.4657 0.1118,0.1513 0.241,0.2973 0.3865,0.4372 0.1454,0.1396 0.3067,0.2728 0.4827,0.3983 0.1759,0.1257 0.3662,0.2433 0.5693,0.3521 0.2033,0.109 0.4189,0.209 0.6452,0.299 0.2261,0.09 0.4622,0.1694 0.7066,0.2384 0.2449,0.069 0.4973,0.1268 0.7555,0.1735 0.2578,0.047 0.5207,0.082 0.7867,0.1061 0.2661,0.024 0.5347,0.035 0.8035,0.035 0.2689,0 0.5374,-0.011 0.8035,-0.035 0.2663,-0.024 0.5295,-0.059 0.7875,-0.1061 0.2579,-0.047 0.5101,-0.1047 0.7547,-0.1735 0.2444,-0.069 0.4806,-0.1487 0.7066,-0.2384 0.2263,-0.09 0.442,-0.19 0.6452,-0.299 0.2031,-0.1089 0.3934,-0.2265 0.5694,-0.3521 0.176,-0.1255 0.3373,-0.2586 0.4826,-0.3983 0.1455,-0.1399 0.2747,-0.286 0.3866,-0.4372 0.1116,-0.1509 0.2055,-0.3065 0.2813,-0.4657 0.076,-0.1596 0.1328,-0.3223 0.1709,-0.4869 0.038,-0.1645 0.058,-0.3306 0.058,-0.4969 v -2.3297 c -2e-4,0.1661 -0.02,0.3318 -0.058,0.4961 -0.038,0.1646 -0.095,0.3273 -0.1709,0.4869 -0.032,0.058 -0.066,0.1145 -0.1027,0.1709 -0.052,0.1001 -0.1118,0.1988 -0.1786,0.2957 -0.1118,0.1512 -0.241,0.2972 -0.3866,0.4371 -0.1453,0.1397 -0.3066,0.2728 -0.4826,0.3984 -0.176,0.1256 -0.3662,0.2432 -0.5693,0.352 -0.2033,0.1087 -0.4189,0.2084 -0.6452,0.2982 -0.2261,0.09 -0.4622,0.1694 -0.7067,0.2383 -0.2445,0.069 -0.4967,0.1275 -0.7546,0.1744 -0.2581,0.047 -0.5213,0.082 -0.7875,0.1061 -0.2662,0.024 -0.5347,0.035 -0.8035,0.035 -0.2689,10e-5 -0.5374,-0.011 -0.8035,-0.035 -0.266,-0.024 -0.5289,-0.059 -0.7867,-0.1061 -0.2582,-0.047 -0.5107,-0.1051 -0.7555,-0.1744 -0.2444,-0.069 -0.4806,-0.1486 -0.7066,-0.2383 -0.2263,-0.09 -0.4419,-0.1894 -0.6452,-0.2982 -0.2031,-0.1088 -0.3934,-0.2264 -0.5694,-0.352 -0.176,-0.1255 -0.3373,-0.2587 -0.4826,-0.3984 -0.1455,-0.1399 -0.2747,-0.2859 -0.3866,-0.4371 -0.064,-0.093 -0.1212,-0.1883 -0.1718,-0.2847 -0.039,-0.06 -0.076,-0.1206 -0.1095,-0.1819 -0.076,-0.1596 -0.1328,-0.3223 -0.171,-0.4869 -0.038,-0.1643 -0.057,-0.3301 -0.057,-0.4961 z"
           style="fill:#ad4301;fill-opacity:1;stroke:#000000;stroke-width:0.215617;stroke-linecap:round;stroke-linejoin:round;stroke-dasharray:none;stroke-opacity:1;paint-order:stroke fill markers"
           id="path810" />
        <ellipse
           style="fill:none;stroke:#000000;stroke-width:0.215617;stroke-linecap:round;stroke-linejoin:round;stroke-dasharray:none;stroke-opacity:1;paint-order:stroke fill markers"
           id="ellipse810"
           cx="-1021.044"
           cy="1222.7384"
           rx="5.6459899"
           ry="3.4894133" />
        <path
           style="fill:#eeb902;fill-opacity:1;stroke:#000000;stroke-width:0.215617;stroke-linecap:round;stroke-linejoin:round;stroke-dasharray:none;stroke-opacity:1;paint-order:stroke fill markers"
           d="m -1006.9289,1225.0626 -14.115,-8.1493"
           id="path812" />
        <path
           style="fill:none;stroke:#000000;stroke-width:0.215617;stroke-linecap:round;stroke-linejoin:round;stroke-dasharray:none;stroke-opacity:1;paint-order:stroke fill markers"
           d="m -1050.6853,1251.9552 14.1149,8.1493"
           id="path818"
           sodipodi:nodetypes="cc" />
        <path
           style="fill:none;stroke:#000000;stroke-width:0.215617;stroke-linecap:round;stroke-linejoin:round;stroke-dasharray:none;stroke-opacity:1;paint-order:stroke fill markers"
           d="m -1022.4554,1251.9552 -14.115,8.1493"
           id="path819"
           sodipodi:nodetypes="cc" />
        <path
           d="m -1042.2161,1249.6253 v 2.3296 c -10e-5,0.1663 0.019,0.3324 0.057,0.497 0.038,0.1646 0.095,0.3272 0.171,0.4868 0.076,0.1592 0.1697,0.3148 0.2813,0.4658 0.1118,0.1512 0.241,0.2972 0.3866,0.4371 0.1454,0.1397 0.3066,0.2728 0.4826,0.3984 0.176,0.1256 0.3663,0.2432 0.5694,0.352 0.2032,0.1091 0.4188,0.209 0.6451,0.299 0.2261,0.09 0.4623,0.1694 0.7067,0.2384 0.2448,0.069 0.4973,0.1268 0.7555,0.1735 0.2578,0.047 0.5207,0.082 0.7866,0.1061 0.2662,0.024 0.5347,0.035 0.8035,0.035 0.2689,10e-5 0.5374,-0.011 0.8036,-0.035 0.2662,-0.024 0.5294,-0.059 0.7875,-0.1061 0.2579,-0.047 0.5101,-0.1047 0.7546,-0.1735 0.2445,-0.069 0.4806,-0.1487 0.7067,-0.2384 0.2263,-0.09 0.4419,-0.1899 0.6451,-0.299 0.2031,-0.1089 0.3934,-0.2265 0.5694,-0.352 0.176,-0.1255 0.3373,-0.2587 0.4826,-0.3984 0.1456,-0.1399 0.2748,-0.2859 0.3866,-0.4371 0.1116,-0.151 0.2056,-0.3066 0.2813,-0.4658 0.076,-0.1596 0.1329,-0.3222 0.171,-0.4868 0.038,-0.1646 0.058,-0.3307 0.058,-0.497 v -2.3296 c -2e-4,0.166 -0.02,0.3318 -0.058,0.496 -0.038,0.1646 -0.095,0.3273 -0.171,0.4869 -0.032,0.057 -0.066,0.1146 -0.1027,0.1709 -0.052,0.1001 -0.1118,0.1988 -0.1785,0.2957 -0.1118,0.1512 -0.2411,0.2973 -0.3866,0.4371 -0.1454,0.1397 -0.3066,0.2729 -0.4826,0.3984 -0.176,0.1257 -0.3663,0.2432 -0.5694,0.352 -0.2033,0.1088 -0.4189,0.2084 -0.6452,0.2982 -0.226,0.09 -0.4622,0.1694 -0.7066,0.2384 -0.2445,0.069 -0.4967,0.1274 -0.7547,0.1743 -0.258,0.047 -0.5212,0.082 -0.7875,0.1061 -0.2661,0.024 -0.5346,0.035 -0.8035,0.035 -0.2688,10e-5 -0.5374,-0.011 -0.8035,-0.035 -0.266,-0.024 -0.5288,-0.059 -0.7867,-0.1061 -0.2582,-0.047 -0.5107,-0.1051 -0.7554,-0.1743 -0.2445,-0.069 -0.4806,-0.1487 -0.7067,-0.2384 -0.2263,-0.09 -0.4419,-0.1894 -0.6452,-0.2982 -0.2031,-0.1088 -0.3934,-0.2264 -0.5693,-0.352 -0.176,-0.1255 -0.3373,-0.2587 -0.4826,-0.3984 -0.1456,-0.1398 -0.2748,-0.2859 -0.3866,-0.4371 -0.064,-0.093 -0.1213,-0.1883 -0.1718,-0.2847 -0.039,-0.06 -0.076,-0.1206 -0.1096,-0.1819 -0.076,-0.1596 -0.1328,-0.3223 -0.171,-0.4869 -0.038,-0.1643 -0.057,-0.33 -0.057,-0.496 z"
           style="fill:#1e528a;fill-opacity:1;stroke:#000000;stroke-width:0.215617;stroke-linecap:round;stroke-linejoin:round;stroke-dasharray:none;stroke-opacity:1;paint-order:stroke fill markers"
           id="path820" />
        <ellipse
           style="fill:none;stroke:#000000;stroke-width:0.215617;stroke-linecap:round;stroke-linejoin:round;stroke-dasharray:none;stroke-opacity:1;paint-order:stroke fill markers"
           id="ellipse820"
           cx="-1036.5703"
           cy="1249.631"
           rx="5.6459899"
           ry="3.4894133" />
        <path
           style="fill:#eeb902;fill-opacity:1;stroke:#000000;stroke-width:0.529167;stroke-linecap:round;stroke-linejoin:round;stroke-dasharray:none;stroke-opacity:1;paint-order:stroke fill markers"
           d="m -1050.6854,1251.9552 14.115,-8.1493"
           id="path821" />
        <path
           style="fill:#eeb902;fill-opacity:1;stroke:#000000;stroke-width:0.529167;stroke-linecap:round;stroke-linejoin:round;stroke-dasharray:none;stroke-opacity:1;paint-order:stroke fill markers"
           d="m -1022.4554,1251.9552 -14.115,-8.1493"
           id="path822" />
        <path
           style="fill:none;stroke:#000000;stroke-width:0.215617;stroke-linecap:round;stroke-linejoin:round;stroke-dasharray:none;stroke-opacity:1;paint-order:stroke fill markers"
           d="m -1035.1589,1260.9194 14.115,8.1493"
           id="path828-7"
           sodipodi:nodetypes="cc" />
        <path
           style="fill:none;stroke:#000000;stroke-width:0.215617;stroke-linecap:round;stroke-linejoin:round;stroke-dasharray:none;stroke-opacity:1;paint-order:stroke fill markers"
           d="m -1006.9289,1260.9194 -14.115,8.1493"
           id="path829-8"
           sodipodi:nodetypes="cc" />
        <path
           d="m -1026.6896,1258.5895 v 2.3297 c -10e-5,0.1662 0.019,0.3323 0.057,0.4969 0.038,0.1646 0.095,0.3273 0.171,0.4868 0.076,0.1593 0.1697,0.3149 0.2813,0.4658 0.1118,0.1512 0.241,0.2973 0.3866,0.4371 0.1453,0.1397 0.3066,0.2729 0.4826,0.3984 0.176,0.1257 0.3662,0.2432 0.5693,0.352 0.2033,0.1091 0.4189,0.209 0.6452,0.2991 0.2261,0.09 0.4622,0.1694 0.7067,0.2383 0.2448,0.069 0.4973,0.1268 0.7555,0.1735 0.2578,0.047 0.5206,0.082 0.7866,0.1061 0.2662,0.024 0.5347,0.035 0.8035,0.035 0.2689,10e-5 0.5374,-0.011 0.8035,-0.035 0.2663,-0.024 0.5295,-0.059 0.7875,-0.1061 0.2579,-0.047 0.5101,-0.1046 0.7547,-0.1735 0.2444,-0.069 0.4806,-0.1486 0.7067,-0.2383 0.2263,-0.09 0.4419,-0.19 0.6451,-0.2991 0.2031,-0.1088 0.3934,-0.2264 0.5694,-0.352 0.176,-0.1255 0.3373,-0.2587 0.4826,-0.3984 0.1455,-0.1398 0.2747,-0.2859 0.3866,-0.4371 0.1116,-0.1509 0.2056,-0.3066 0.2813,-0.4658 0.076,-0.1595 0.1328,-0.3222 0.171,-0.4868 0.038,-0.1646 0.058,-0.3307 0.058,-0.4969 v -2.3297 c -2e-4,0.166 -0.02,0.3318 -0.058,0.4961 -0.038,0.1646 -0.095,0.3273 -0.171,0.4868 -0.032,0.058 -0.066,0.1146 -0.1027,0.171 -0.052,0.1 -0.1118,0.1988 -0.1786,0.2956 -0.1118,0.1513 -0.241,0.2973 -0.3866,0.4371 -0.1453,0.1397 -0.3066,0.2729 -0.4826,0.3984 -0.1759,0.1257 -0.3662,0.2432 -0.5693,0.3521 -0.2033,0.1087 -0.4189,0.2084 -0.6452,0.2981 -0.2261,0.09 -0.4622,0.1694 -0.7066,0.2384 -0.2446,0.069 -0.4967,0.1274 -0.7547,0.1743 -0.2581,0.047 -0.5212,0.082 -0.7875,0.1061 -0.2661,0.024 -0.5347,0.035 -0.8035,0.035 -0.2689,0 -0.5374,-0.011 -0.8035,-0.035 -0.266,-0.024 -0.5289,-0.059 -0.7867,-0.1061 -0.2582,-0.047 -0.5107,-0.1051 -0.7555,-0.1743 -0.2444,-0.069 -0.4805,-0.1487 -0.7066,-0.2384 -0.2263,-0.09 -0.4419,-0.1894 -0.6452,-0.2981 -0.2031,-0.1089 -0.3934,-0.2265 -0.5693,-0.3521 -0.1761,-0.1255 -0.3374,-0.2586 -0.4827,-0.3984 -0.1455,-0.1398 -0.2747,-0.2859 -0.3866,-0.4371 -0.064,-0.093 -0.1212,-0.1883 -0.1718,-0.2847 -0.039,-0.06 -0.076,-0.1206 -0.1095,-0.1819 -0.076,-0.1596 -0.1328,-0.3222 -0.171,-0.4868 -0.038,-0.1643 -0.057,-0.3301 -0.057,-0.4961 z"
           style="fill:#1e528a;fill-opacity:1;stroke:#000000;stroke-width:0.215617;stroke-linecap:round;stroke-linejoin:round;stroke-dasharray:none;stroke-opacity:1;paint-order:stroke fill markers"
           id="path830-3" />
        <ellipse
           style="fill:none;stroke:#000000;stroke-width:0.215617;stroke-linecap:round;stroke-linejoin:round;stroke-dasharray:none;stroke-opacity:1;paint-order:stroke fill markers"
           id="ellipse830-2"
           cx="-1021.0439"
           cy="1258.5952"
           rx="5.6459899"
           ry="3.4894133" />
        <path
           style="fill:#eeb902;fill-opacity:1;stroke:#000000;stroke-width:0.529167;stroke-linecap:round;stroke-linejoin:round;stroke-dasharray:none;stroke-opacity:1;paint-order:stroke fill markers"
           d="m -1035.1589,1260.9194 14.115,-8.1492"
           id="path831-7" />
        <path
           style="fill:#eeb902;fill-opacity:1;stroke:#000000;stroke-width:0.529167;stroke-linecap:round;stroke-linejoin:round;stroke-dasharray:none;stroke-opacity:1;paint-order:stroke fill markers"
           d="m -1006.9289,1260.9194 -14.115,-8.1492"
           id="path832-7" />
        <path
           style="fill:none;stroke:#000000;stroke-width:0.215617;stroke-linecap:round;stroke-linejoin:round;stroke-dasharray:none;stroke-opacity:1;paint-order:stroke fill markers"
           d="m -1019.6324,1251.9552 14.115,8.1493"
           id="path833"
           sodipodi:nodetypes="cc" />
        <path
           style="fill:#6d9303;fill-opacity:1;stroke:none;stroke-width:0.24474;stroke-linecap:round;stroke-linejoin:round;stroke-dasharray:none;stroke-opacity:1;paint-order:stroke fill markers"
           d="m -975.87602,1242.991 -14.11496,8.1493 v 16.2985 l 14.11496,-8.1492 z"
           id="path1788" />
        <path
           style="fill:none;stroke:#000000;stroke-width:0.215617;stroke-linecap:round;stroke-linejoin:round;stroke-dasharray:none;stroke-opacity:1;paint-order:stroke fill markers"
           d="m -991.40243,1251.9552 -14.11497,8.1493"
           id="path834"
           sodipodi:nodetypes="cc" />
        <path
           d="m -1011.1631,1249.6253 v 2.3297 c -10e-5,0.1662 0.019,0.3323 0.057,0.4969 0.038,0.1646 0.095,0.3273 0.1709,0.4868 0.076,0.1592 0.1698,0.3148 0.2814,0.4658 0.1118,0.1512 0.241,0.2973 0.3865,0.4371 0.1454,0.1397 0.3067,0.2729 0.4827,0.3984 0.1759,0.1256 0.3662,0.2432 0.5693,0.352 0.2033,0.1091 0.4189,0.209 0.6452,0.299 0.2261,0.09 0.4622,0.1694 0.7066,0.2384 0.2449,0.069 0.4973,0.1268 0.7555,0.1735 0.2578,0.047 0.5207,0.082 0.7867,0.1061 0.2661,0.024 0.5347,0.035 0.8035,0.035 0.2689,10e-5 0.5374,-0.011 0.8035,-0.035 0.2663,-0.024 0.5294,-0.059 0.7875,-0.1061 0.2579,-0.047 0.5101,-0.1046 0.7547,-0.1735 0.2444,-0.069 0.4806,-0.1486 0.7066,-0.2384 0.2263,-0.09 0.442,-0.1899 0.6452,-0.299 0.2031,-0.1088 0.3934,-0.2264 0.5694,-0.352 0.176,-0.1255 0.3372,-0.2587 0.4826,-0.3984 0.1455,-0.1398 0.2747,-0.2859 0.3866,-0.4371 0.1116,-0.151 0.2055,-0.3066 0.2813,-0.4658 0.076,-0.1596 0.13279,-0.3222 0.17093,-0.4868 0.0385,-0.1646 0.058,-0.3307 0.0582,-0.4969 v -2.3297 c -2.4e-4,0.166 -0.0197,0.3318 -0.0582,0.4961 -0.0382,0.1645 -0.0953,0.3272 -0.17093,0.4868 -0.032,0.057 -0.066,0.1146 -0.1027,0.171 -0.052,0.1 -0.1118,0.1988 -0.1786,0.2956 -0.1118,0.1513 -0.241,0.2973 -0.3866,0.4371 -0.1454,0.1397 -0.3066,0.2729 -0.4826,0.3984 -0.176,0.1257 -0.3662,0.2432 -0.5693,0.3521 -0.2033,0.1087 -0.4189,0.2084 -0.6452,0.2981 -0.2261,0.09 -0.4622,0.1694 -0.7067,0.2384 -0.2445,0.069 -0.4967,0.1274 -0.7546,0.1743 -0.2581,0.047 -0.5213,0.082 -0.7875,0.1061 -0.2662,0.024 -0.5347,0.035 -0.8035,0.035 -0.2689,0 -0.5374,-0.012 -0.8035,-0.035 -0.266,-0.024 -0.5289,-0.059 -0.7867,-0.1061 -0.2582,-0.047 -0.5107,-0.1051 -0.7555,-0.1743 -0.2444,-0.069 -0.4806,-0.1487 -0.7066,-0.2384 -0.2263,-0.09 -0.4419,-0.1894 -0.6452,-0.2981 -0.2031,-0.1089 -0.3934,-0.2265 -0.5694,-0.3521 -0.176,-0.1255 -0.3373,-0.2586 -0.4826,-0.3984 -0.1455,-0.1398 -0.2747,-0.2859 -0.3866,-0.4371 -0.064,-0.093 -0.1212,-0.1883 -0.1718,-0.2847 -0.039,-0.06 -0.076,-0.1206 -0.1095,-0.1819 -0.076,-0.1596 -0.1329,-0.3223 -0.171,-0.4868 -0.038,-0.1643 -0.057,-0.3301 -0.057,-0.4961 z"
           style="fill:#6d9303;fill-opacity:1;stroke:#000000;stroke-width:0.215617;stroke-linecap:round;stroke-linejoin:round;stroke-dasharray:none;stroke-opacity:1;paint-order:stroke fill markers"
           id="path835" />
        <ellipse
           style="fill:none;stroke:#000000;stroke-width:0.215617;stroke-linecap:round;stroke-linejoin:round;stroke-dasharray:none;stroke-opacity:1;paint-order:stroke fill markers"
           id="ellipse835"
           cx="-1005.5174"
           cy="1249.631"
           rx="5.6459899"
           ry="3.4894133" />
        <path
           style="fill:#eeb902;fill-opacity:1;stroke:#000000;stroke-width:0.215617;stroke-linecap:round;stroke-linejoin:round;stroke-dasharray:none;stroke-opacity:1;paint-order:stroke fill markers"
           d="m -1019.6324,1251.9552 14.115,-8.1492"
           id="path836" />
        <path
           style="fill:#eeb902;fill-opacity:1;stroke:#000000;stroke-width:0.529167;stroke-linecap:round;stroke-linejoin:round;stroke-dasharray:none;stroke-opacity:1;paint-order:stroke fill markers"
           d="m -991.40242,1251.9552 -14.11498,-8.1492"
           id="path837" />
        <path
           style="fill:none;stroke:#000000;stroke-width:0.215617;stroke-linecap:round;stroke-linejoin:round;stroke-dasharray:none;stroke-opacity:1;paint-order:stroke fill markers"
           d="m -1004.1059,1242.991 14.11494,8.1493"
           id="path849"
           sodipodi:nodetypes="cc" />
        <path
           style="fill:none;stroke:#000000;stroke-width:0.215617;stroke-linecap:round;stroke-linejoin:round;stroke-dasharray:none;stroke-opacity:1;paint-order:stroke fill markers"
           d="m -975.87599,1242.991 -14.11497,8.1493"
           id="path850"
           sodipodi:nodetypes="cc" />
        <path
           d="m -995.63669,1240.6611 v 2.3297 c -8e-5,0.1662 0.019,0.3323 0.0572,0.4969 0.0382,0.1646 0.0953,0.3273 0.17099,0.4868 0.0758,0.1592 0.16973,0.3148 0.28131,0.4658 0.11181,0.1512 0.24104,0.2973 0.38658,0.4371 0.14539,0.1397 0.30662,0.2729 0.48262,0.3984 0.17598,0.1256 0.36625,0.2432 0.56936,0.352 0.20324,0.1091 0.41886,0.209 0.64517,0.2991 0.22607,0.09 0.46223,0.1693 0.70665,0.2383 0.24482,0.069 0.49729,0.1268 0.75549,0.1735 0.25781,0.047 0.52069,0.082 0.78667,0.1061 0.26614,0.024 0.53466,0.035 0.8035,0.035 0.26886,10e-5 0.53738,-0.011 0.80352,-0.035 0.26625,-0.024 0.52943,-0.059 0.7875,-0.1061 0.25791,-0.047 0.51011,-0.1046 0.75465,-0.1735 0.24444,-0.069 0.48058,-0.1486 0.70666,-0.2383 0.22631,-0.09 0.44192,-0.19 0.64516,-0.2991 0.2031,-0.1088 0.39338,-0.2264 0.56936,-0.352 0.17601,-0.1255 0.3373,-0.2587 0.48262,-0.3984 0.14554,-0.1398 0.27475,-0.2859 0.38658,-0.4371 0.11165,-0.151 0.20559,-0.3066 0.28132,-0.4658 0.0756,-0.1596 0.13283,-0.3222 0.17097,-0.4868 0.0385,-0.1646 0.058,-0.3307 0.0582,-0.4969 v -2.3297 c -2.5e-4,0.166 -0.0197,0.3318 -0.0582,0.4961 -0.0382,0.1646 -0.0954,0.3272 -0.17097,0.4868 -0.0318,0.058 -0.066,0.1146 -0.10268,0.171 -0.0523,0.1 -0.11182,0.1988 -0.17857,0.2956 -0.11181,0.1513 -0.24104,0.2973 -0.38659,0.4371 -0.14538,0.1397 -0.3066,0.2729 -0.48262,0.3984 -0.17597,0.1257 -0.36626,0.2432 -0.56935,0.3521 -0.20329,0.1087 -0.41891,0.2084 -0.64517,0.2981 -0.22607,0.09 -0.46222,0.1694 -0.70665,0.2384 -0.24452,0.069 -0.4967,0.1274 -0.75466,0.1743 -0.25807,0.047 -0.52124,0.082 -0.78749,0.1061 -0.26614,0.024 -0.53466,0.035 -0.80353,0.035 -0.26884,0 -0.53736,-0.011 -0.8035,-0.035 -0.26597,-0.024 -0.52885,-0.059 -0.78667,-0.1061 -0.25823,-0.047 -0.51071,-0.1051 -0.75549,-0.1743 -0.24442,-0.069 -0.48058,-0.1487 -0.70665,-0.2384 -0.22628,-0.09 -0.44187,-0.1894 -0.64517,-0.2981 -0.20311,-0.1089 -0.39338,-0.2265 -0.56935,-0.3521 -0.17601,-0.1255 -0.3373,-0.2586 -0.48261,-0.3984 -0.14556,-0.1398 -0.27475,-0.2859 -0.38659,-0.4371 -0.0639,-0.093 -0.12127,-0.1883 -0.17182,-0.2847 -0.0393,-0.06 -0.0758,-0.1206 -0.10953,-0.1819 -0.0756,-0.1596 -0.13283,-0.3222 -0.17098,-0.4868 -0.0382,-0.1643 -0.0574,-0.3301 -0.0572,-0.4961 z"
           style="fill:#6d9303;fill-opacity:1;stroke:#000000;stroke-width:0.215617;stroke-linecap:round;stroke-linejoin:round;stroke-dasharray:none;stroke-opacity:1;paint-order:stroke fill markers"
           id="path851" />
        <ellipse
           style="fill:none;stroke:#000000;stroke-width:0.215617;stroke-linecap:round;stroke-linejoin:round;stroke-dasharray:none;stroke-opacity:1;paint-order:stroke fill markers"
           id="ellipse851"
           cx="-989.99103"
           cy="1240.6667"
           rx="5.6459899"
           ry="3.4894133" />
        <path
           style="fill:#eeb902;fill-opacity:1;stroke:#000000;stroke-width:0.215617;stroke-linecap:round;stroke-linejoin:round;stroke-dasharray:none;stroke-opacity:1;paint-order:stroke fill markers"
           d="m -1004.106,1242.991 14.11502,-8.1493"
           id="path852" />
        <path
           style="fill:#eeb902;fill-opacity:1;stroke:#000000;stroke-width:0.215617;stroke-linecap:round;stroke-linejoin:round;stroke-dasharray:none;stroke-opacity:1;paint-order:stroke fill markers"
           d="m -975.87598,1242.991 -14.115,-8.1493"
           id="path853" />
        <path
           style="fill:#eeb902;fill-opacity:1;stroke:#000000;stroke-width:0.215617;stroke-linecap:round;stroke-linejoin:round;stroke-dasharray:none;stroke-opacity:1;paint-order:stroke fill markers"
           d="m -1066.2118,1242.991 v 16.2986"
           id="path894" />
        <path
           style="fill:#eeb902;fill-opacity:1;stroke:#000000;stroke-width:0.215617;stroke-linecap:round;stroke-linejoin:round;stroke-dasharray:none;stroke-opacity:1;paint-order:stroke fill markers"
           d="m -1052.0968,1251.1402 v 16.2986"
           id="path895" />
        <path
           style="fill:#eeb902;fill-opacity:1;stroke:#000000;stroke-width:0.215617;stroke-linecap:round;stroke-linejoin:round;stroke-dasharray:none;stroke-opacity:1;paint-order:stroke fill markers"
           d="m -1066.2118,1259.2896 14.115,8.1492"
           id="path896" />
        <path
           style="fill:#eeb902;fill-opacity:1;stroke:#000000;stroke-width:0.529167;stroke-linecap:round;stroke-linejoin:round;stroke-dasharray:none;stroke-opacity:1;paint-order:stroke fill markers"
           d="m -1037.9819,1242.991 v 1.6298"
           id="path897" />
        <path
           style="fill:#eeb902;fill-opacity:1;stroke:#000000;stroke-width:0.529167;stroke-linecap:round;stroke-linejoin:round;stroke-dasharray:none;stroke-opacity:1;paint-order:stroke fill markers"
           d="m -1050.6854,1251.9552 v 16.2986"
           id="path898" />
        <path
           style="fill:#eeb902;fill-opacity:1;stroke:#000000;stroke-width:0.215617;stroke-linecap:round;stroke-linejoin:round;stroke-dasharray:none;stroke-opacity:1;paint-order:stroke fill markers"
           d="m -1036.5704,1260.1045 v 16.2985"
           id="path1437" />
        <path
           style="fill:#eeb902;fill-opacity:1;stroke:#000000;stroke-width:0.215617;stroke-linecap:round;stroke-linejoin:round;stroke-dasharray:none;stroke-opacity:1;paint-order:stroke fill markers"
           d="m -1050.6854,1268.2538 14.115,8.1492"
           id="path1438" />
        <path
           style="fill:#eeb902;fill-opacity:1;stroke:#000000;stroke-width:0.215617;stroke-linecap:round;stroke-linejoin:round;stroke-dasharray:none;stroke-opacity:1;paint-order:stroke fill markers"
           d="m -1052.0968,1267.4388 1.4114,-0.8149"
           id="path1439" />
        <path
           style="fill:#eeb902;fill-opacity:1;stroke:#000000;stroke-width:0.529167;stroke-linecap:round;stroke-linejoin:round;stroke-dasharray:none;stroke-opacity:1;paint-order:stroke fill markers"
           d="m -1035.1589,1260.9194 v 16.2986"
           id="path1440-8" />
        <path
           style="fill:#eeb902;fill-opacity:1;stroke:#000000;stroke-width:0.215617;stroke-linecap:round;stroke-linejoin:round;stroke-dasharray:none;stroke-opacity:1;paint-order:stroke fill markers"
           d="m -1021.0439,1269.0687 v 16.2985"
           id="path1441-9" />
        <path
           style="fill:#eeb902;fill-opacity:1;stroke:#000000;stroke-width:0.215617;stroke-linecap:round;stroke-linejoin:round;stroke-dasharray:none;stroke-opacity:1;paint-order:stroke fill markers"
           d="m -1035.1589,1277.218 14.115,8.1492"
           id="path1442-6" />
        <path
           style="fill:#eeb902;fill-opacity:1;stroke:#000000;stroke-width:0.529167;stroke-linecap:round;stroke-linejoin:round;stroke-dasharray:none;stroke-opacity:1;paint-order:stroke fill markers"
           d="m -1022.4554,1251.9552 v 1.6298"
           id="path1443" />
        <path
           style="fill:#eeb902;fill-opacity:1;stroke:#000000;stroke-width:0.215617;stroke-linecap:round;stroke-linejoin:round;stroke-dasharray:none;stroke-opacity:1;paint-order:stroke fill markers"
           d="m -1036.5704,1242.176 v 1.6299"
           id="path1444" />
        <path
           style="fill:#eeb902;fill-opacity:1;stroke:#000000;stroke-width:0.215617;stroke-linecap:round;stroke-linejoin:round;stroke-dasharray:none;stroke-opacity:1;paint-order:stroke fill markers"
           d="m -1019.6324,1251.9552 v 1.6298"
           id="path1447" />
        <path
           style="fill:#eeb902;fill-opacity:1;stroke:#000000;stroke-width:0.529167;stroke-linecap:round;stroke-linejoin:round;stroke-dasharray:none;stroke-opacity:1;paint-order:stroke fill markers"
           d="m -1006.9289,1260.9194 v 16.2986"
           id="path1448-9" />
        <path
           style="fill:#eeb902;fill-opacity:1;stroke:#000000;stroke-width:0.215617;stroke-linecap:round;stroke-linejoin:round;stroke-dasharray:none;stroke-opacity:1;paint-order:stroke fill markers"
           d="m -1021.0439,1285.3672 14.115,-8.1492"
           id="path1449-7" />
        <path
           style="fill:#eeb902;fill-opacity:1;stroke:#000000;stroke-width:0.215617;stroke-linecap:round;stroke-linejoin:round;stroke-dasharray:none;stroke-opacity:1;paint-order:stroke fill markers"
           d="m -1005.5174,1260.1045 v 16.2985"
           id="path1450" />
        <path
           style="fill:#eeb902;fill-opacity:1;stroke:#000000;stroke-width:0.529167;stroke-linecap:round;stroke-linejoin:round;stroke-dasharray:none;stroke-opacity:1;paint-order:stroke fill markers"
           d="m -991.40247,1251.9552 v 16.2986"
           id="path1451" />
        <path
           style="fill:#eeb902;fill-opacity:1;stroke:#000000;stroke-width:0.215617;stroke-linecap:round;stroke-linejoin:round;stroke-dasharray:none;stroke-opacity:1;paint-order:stroke fill markers"
           d="m -1005.5174,1276.403 14.11493,-8.1492"
           id="path1452" />
        <path
           style="fill:#eeb902;fill-opacity:1;stroke:#000000;stroke-width:0.215617;stroke-linecap:round;stroke-linejoin:round;stroke-dasharray:none;stroke-opacity:1;paint-order:stroke fill markers"
           d="m -1004.1059,1242.991 v 1.6298"
           id="path1453" />
        <path
           style="fill:#eeb902;fill-opacity:1;stroke:#000000;stroke-width:0.215617;stroke-linecap:round;stroke-linejoin:round;stroke-dasharray:none;stroke-opacity:1;paint-order:stroke fill markers"
           d="m -989.99098,1251.1402 v 16.2986"
           id="path1454" />
        <path
           style="fill:#eeb902;fill-opacity:1;stroke:#000000;stroke-width:0.215617;stroke-linecap:round;stroke-linejoin:round;stroke-dasharray:none;stroke-opacity:1;paint-order:stroke fill markers"
           d="m -975.87599,1242.991 v 16.2986"
           id="path1455" />
        <path
           style="fill:#eeb902;fill-opacity:1;stroke:#000000;stroke-width:0.215617;stroke-linecap:round;stroke-linejoin:round;stroke-dasharray:none;stroke-opacity:1;paint-order:stroke fill markers"
           d="m -989.99098,1267.4388 14.11499,-8.1492"
           id="path1456" />
        <path
           style="fill:#eeb902;fill-opacity:1;stroke:#000000;stroke-width:0.215617;stroke-linecap:round;stroke-linejoin:round;stroke-dasharray:none;stroke-opacity:1;paint-order:stroke fill markers"
           d="m -989.99098,1267.4388 -1.41149,-0.8149"
           id="path1457" />
        <path
           style="fill:#eeb902;fill-opacity:1;stroke:#000000;stroke-width:0.215617;stroke-linecap:round;stroke-linejoin:round;stroke-dasharray:none;stroke-opacity:1;paint-order:stroke fill markers"
           d="m -1035.1589,1225.0626 v 1.6298"
           id="path1463" />
        <path
           style="fill:#eeb902;fill-opacity:1;stroke:#000000;stroke-width:0.215617;stroke-linecap:round;stroke-linejoin:round;stroke-dasharray:none;stroke-opacity:1;paint-order:stroke fill markers"
           d="m -1050.6854,1234.0268 v 1.6298"
           id="path1496" />
        <path
           style="fill:#eeb902;fill-opacity:1;stroke:#000000;stroke-width:0.215617;stroke-linecap:round;stroke-linejoin:round;stroke-dasharray:none;stroke-opacity:1;paint-order:stroke fill markers"
           d="m -1036.5704,1276.403 1.4115,-0.8149"
           id="path1513" />
        <path
           style="fill:#eeb902;fill-opacity:1;stroke:#000000;stroke-width:0.215617;stroke-linecap:round;stroke-linejoin:round;stroke-dasharray:none;stroke-opacity:1;paint-order:stroke fill markers"
           d="m -1005.5174,1276.403 -1.4115,-0.8149"
           id="path1514" />
        <path
           style="fill:none;fill-opacity:1;stroke:#000000;stroke-width:0.215635;stroke-linecap:round;stroke-linejoin:round;stroke-dasharray:none;stroke-opacity:1;paint-order:stroke fill markers"
           d="m -1035.1589,1225.0626 14.115,-8.1493"
           id="path1797" />
        <path
           style="fill:#eeb902;fill-opacity:1;stroke:#000000;stroke-width:0.529167;stroke-linecap:round;stroke-linejoin:round;stroke-dasharray:none;stroke-opacity:1;paint-order:stroke fill markers"
           d="m -1022.4554,1234.0268 v 16.2985"
           id="path1798" />
        <path
           style="fill:#eeb902;fill-opacity:1;stroke:#000000;stroke-width:0.215617;stroke-linecap:round;stroke-linejoin:round;stroke-dasharray:none;stroke-opacity:1;paint-order:stroke fill markers"
           d="m -1006.9289,1225.0626 v 16.2985"
           id="path1799" />
        <path
           style="fill:#eeb902;fill-opacity:1;stroke:#000000;stroke-width:0.215617;stroke-linecap:round;stroke-linejoin:round;stroke-dasharray:none;stroke-opacity:1;paint-order:stroke fill markers"
           d="m -1021.0439,1233.2118 v 16.2985"
           id="path1800" />
        <path
           style="fill:none;fill-opacity:1;stroke:#000000;stroke-width:0.215635;stroke-linecap:round;stroke-linejoin:round;stroke-dasharray:none;stroke-opacity:1;paint-order:stroke fill markers"
           d="m -1021.0439,1249.5103 14.115,-8.1492"
           id="path1801" />
        <path
           style="fill:none;fill-opacity:1;stroke:#000000;stroke-width:0.215635;stroke-linecap:round;stroke-linejoin:round;stroke-dasharray:none;stroke-opacity:1;paint-order:stroke fill markers"
           d="m -1022.4554,1250.3253 -1.4437,0.8231"
           id="path1802" />
        <path
           style="fill:none;fill-opacity:1;stroke:#000000;stroke-width:0.215635;stroke-linecap:round;stroke-linejoin:round;stroke-dasharray:none;stroke-opacity:1;paint-order:stroke fill markers"
           d="m -1021.0439,1249.5103 -1.4241,-0.8325"
           id="path1803" />
      </g>
    </g>
  </g>
</svg>
