<?xml version="1.0" encoding="UTF-8" standalone="no"?>
<!-- Created with Inkscape (http://www.inkscape.org/) -->

<svg
   width="50"
   height="50"
   viewBox="0 0 13.229166 13.229167"
   version="1.1"
   id="svg5"
   inkscape:version="1.3 (0e150ed6c4, 2023-07-21)"
   sodipodi:docname="ng.svg"
   xmlns:inkscape="http://www.inkscape.org/namespaces/inkscape"
   xmlns:sodipodi="http://sodipodi.sourceforge.net/DTD/sodipodi-0.dtd"
   xmlns="http://www.w3.org/2000/svg"
   xmlns:svg="http://www.w3.org/2000/svg">
  <sodipodi:namedview
     id="namedview7"
     pagecolor="#505050"
     bordercolor="#eeeeee"
     borderopacity="1"
     inkscape:pageshadow="0"
     inkscape:pageopacity="0"
     inkscape:pagecheckerboard="0"
     inkscape:document-units="px"
     showgrid="true"
     units="px"
     inkscape:snap-bbox="true"
     inkscape:bbox-paths="true"
     inkscape:bbox-nodes="true"
     inkscape:snap-bbox-edge-midpoints="true"
     inkscape:snap-bbox-midpoints="true"
     inkscape:snap-center="true"
     inkscape:snap-object-midpoints="true"
     showguides="true"
     inkscape:guide-bbox="true"
     inkscape:zoom="3.4427263"
     inkscape:cx="8.278323"
     inkscape:cy="63.612377"
     inkscape:window-width="1600"
     inkscape:window-height="878"
     inkscape:window-x="-8"
     inkscape:window-y="-8"
     inkscape:window-maximized="1"
     inkscape:current-layer="layer1"
     inkscape:showpageshadow="2"
     inkscape:deskcolor="#d1d1d1">
    <sodipodi:guide
       position="6.6145837,10.086593"
       orientation="0,-1"
       id="guide1655"
       inkscape:locked="false" />
    <sodipodi:guide
       position="6.6145818,3.1419323"
       orientation="0,-1"
       id="guide1657"
       inkscape:locked="false" />
  </sodipodi:namedview>
  <defs
     id="defs2" />
  <g
     inkscape:label="Слой 1"
     inkscape:groupmode="layer"
     id="layer1"
     transform="translate(0.0032262,0.0032262)">
    <path
       style="fill:#363537;fill-opacity:1;stroke-width:0.66146;stroke-linecap:square;stroke-linejoin:round;paint-order:markers fill stroke"
       d="m 1.6504198,-0.0032262 c -0.91611815,0 -1.653646,0.73752785 -1.653646,1.653646 v 9.9218752 c 0,0.916118 0.73752785,1.653645 1.653646,1.653645 h 9.9218752 c 0.916118,0 1.653645,-0.737527 1.653645,-1.653645 V 1.6504198 c 0,-0.91611815 -0.737527,-1.653646 -1.653645,-1.653646 z"
       id="rect1" />
    <path
       class="cls-1"
       d="M 5.7656073,9.5946205 4.3253765,7.1011352 2.8838405,4.6069974 A 0.978861,0.978861 0 0 1 3.7321867,3.1387059 h 5.7589655 a 0.978861,0.978861 0 0 1 0.9788608,0.978861 0.96711467,0.96711467 0 0 1 -0.130515,0.4874728 L 8.9005728,7.1011352 7.4609945,9.5946205 a 0.978861,0.978861 0 0 1 -1.6953872,0 z"
       id="path1"
       style="fill:#f1f2ee;fill-opacity:1;stroke-width:0.0652574" />
    <path
       style="font-size:26.6667px;font-family:'Days One';-inkscape-font-specification:'Days One';text-align:center;text-anchor:middle;white-space:pre;fill:#363537;fill-opacity:1;stroke-width:0.669861;stroke-linecap:round;stroke-linejoin:round;paint-order:stroke fill markers"
       d="m 6.32483,4.2386086 c -0.0785,0 -0.1427482,0.026049 -0.1950828,0.078381 -0.049425,0.049425 -0.074897,0.1130994 -0.074897,0.1915992 V 5.5937336 H 4.9644799 c -0.075592,0 -0.1392646,0.026048 -0.1915993,0.078381 -0.049425,0.049428 -0.073155,0.1148401 -0.073155,0.19334 v 0.519058 c 0,0.0785 0.023729,0.1421722 0.073155,0.1915993 0.049428,0.049428 0.1130995,0.073155 0.1915993,0.073155 h 1.0903704 v 1.1426255 c 0,0.0785 0.025472,0.1444911 0.074897,0.1968235 0.052333,0.049428 0.1165829,0.073155 0.1950828,0.073155 h 0.5155746 c 0.0785,0 0.1421743,-0.02373 0.1915993,-0.073155 0.052333,-0.052333 0.07838,-0.1183258 0.07838,-0.1968235 V 6.6492671 h 1.1426247 c 0.0785,0 0.1421743,-0.023732 0.1915993,-0.073155 0.052333,-0.049425 0.07838,-0.1130995 0.07838,-0.1915992 V 5.8654542 c 0,-0.078498 -0.026049,-0.143915 -0.07838,-0.19334 C 8.395181,5.6197822 8.3315088,5.5937332 8.253009,5.5937332 H 7.1103843 V 4.5085881 c 0,-0.0785 -0.026049,-0.1421721 -0.078381,-0.1915993 -0.049425,-0.052332 -0.1130994,-0.078381 -0.1915992,-0.078381 z"
       id="path5" />
  </g>
</svg>
