<?xml version="1.0" encoding="UTF-8" standalone="no"?>
<!-- Created with Inkscape (http://www.inkscape.org/) -->

<svg
   width="507.03223"
   height="507.03223"
   viewBox="0 0 134.15227 134.15228"
   version="1.1"
   id="svg1"
   sodipodi:docname="icon_2.svg.2025_05_14_15_49_13.0 (1).svg"
   inkscape:version="1.3 (0e150ed6c4, 2023-07-21)"
   inkscape:export-filename="collapse_800_en.png"
   inkscape:export-xdpi="96"
   inkscape:export-ydpi="96"
   xml:space="preserve"
   xmlns:inkscape="http://www.inkscape.org/namespaces/inkscape"
   xmlns:sodipodi="http://sodipodi.sourceforge.net/DTD/sodipodi-0.dtd"
   xmlns:xlink="http://www.w3.org/1999/xlink"
   xmlns="http://www.w3.org/2000/svg"
   xmlns:svg="http://www.w3.org/2000/svg"><sodipodi:namedview
     id="namedview1"
     pagecolor="#ffffff"
     bordercolor="#000000"
     borderopacity="0.25"
     inkscape:showpageshadow="2"
     inkscape:pageopacity="0.0"
     inkscape:pagecheckerboard="0"
     inkscape:deskcolor="#d1d1d1"
     inkscape:document-units="px"
     showguides="true"
     inkscape:zoom="0.6660157"
     inkscape:cx="-1391.1083"
     inkscape:cy="1372.34"
     inkscape:window-width="1600"
     inkscape:window-height="878"
     inkscape:window-x="-8"
     inkscape:window-y="-8"
     inkscape:window-maximized="1"
     inkscape:current-layer="layer1"
     showgrid="true"><sodipodi:guide
       position="563.15836,-67.654214"
       orientation="0,-1"
       id="guide483"
       inkscape:locked="false" /><sodipodi:guide
       position="600.6557,-61.670834"
       orientation="0,-1"
       id="guide486"
       inkscape:locked="false" /><sodipodi:guide
       position="825.78467,409.44206"
       orientation="1,0"
       id="guide866"
       inkscape:locked="false" /><sodipodi:guide
       position="825.78442,409.44206"
       orientation="0,-1"
       id="guide867"
       inkscape:locked="false" /><sodipodi:guide
       position="825.78442,408.29898"
       orientation="0,-1"
       id="guide868"
       inkscape:locked="false" /><sodipodi:guide
       position="825.78442,403.53648"
       orientation="0,-1"
       id="guide869"
       inkscape:locked="false" /><sodipodi:guide
       position="825.78442,402.3934"
       orientation="0,-1"
       id="guide870"
       inkscape:locked="false" /><sodipodi:guide
       position="839.26989,396.38601"
       orientation="1,0"
       id="guide872"
       inkscape:locked="false" /><sodipodi:guide
       position="-82.706856,280.38069"
       orientation="0,-1"
       id="guide9"
       inkscape:locked="false" /><sodipodi:guide
       position="-101.09656,261.99098"
       orientation="1,0"
       id="guide10"
       inkscape:locked="false" /><sodipodi:guide
       position="-64.317156,261.99098"
       orientation="1,0"
       id="guide11"
       inkscape:locked="false" /><sodipodi:guide
       position="-82.706856,243.60128"
       orientation="0,-1"
       id="guide12"
       inkscape:locked="false" /><sodipodi:guide
       position="-31.061076,261.99098"
       orientation="0,-1"
       id="guide13"
       inkscape:locked="false" /><sodipodi:guide
       position="-82.706856,261.99098"
       orientation="1,0"
       id="guide14"
       inkscape:locked="false" /><sodipodi:guide
       position="-31.061076,261.99098"
       orientation="1,0"
       id="guide54"
       inkscape:locked="false" /><sodipodi:guide
       position="-12.671346,261.99098"
       orientation="1,0"
       id="guide55"
       inkscape:locked="false" /><sodipodi:guide
       position="-95.360356,274.60804"
       orientation="1,0"
       id="guide57"
       inkscape:locked="false" /><sodipodi:guide
       position="8.8277743,225.47733"
       orientation="0,-1"
       id="guide2"
       inkscape:locked="false" /><sodipodi:guide
       position="8.8277543,205.92009"
       orientation="0,-1"
       id="guide3"
       inkscape:locked="false" /><sodipodi:guide
       position="46.965014,215.69871"
       orientation="1,0"
       id="guide4"
       inkscape:locked="false" /><sodipodi:guide
       position="-31.061046,261.99098"
       orientation="-0.70710678,-0.70710678"
       id="guide17"
       inkscape:locked="false" /><sodipodi:guide
       position="-17.900586,248.83054"
       orientation="0.70710678,-0.70710678"
       id="guide18"
       inkscape:locked="false" /></sodipodi:namedview><defs
     id="defs1"><color-profile
       name="sRGB-IEC61966-2.1"
       xlink:href="../../../../../../Windows/system32/spool/drivers/color/sRGB%20Color%20Space%20Profile.icm"
       id="color-profile1" /><linearGradient
       id="swatch280"
       inkscape:swatch="solid"><stop
         style="stop-color:#979797;stop-opacity:1;"
         offset="0"
         id="stop280" /></linearGradient><color-profile
       name="Agfa-:-Swop-Standard"
       xlink:href="../../../../../Windows/system32/spool/drivers/color/RSWOP.icm"
       id="color-profile2" /></defs><g
     inkscape:label="Слой 1"
     inkscape:groupmode="layer"
     id="layer1"
     transform="translate(465.06899,-234.22071)"><rect
       style="fill:#2d7dd2;fill-opacity:1;stroke:none;stroke-width:1.31438;stroke-linecap:square;stroke-linejoin:miter;stroke-dasharray:none;stroke-opacity:1;paint-order:fill markers stroke"
       id="rect71"
       width="134.15228"
       height="134.15228"
       x="-465.069"
       y="234.2207"
       ry="0"
       inkscape:export-filename="collapse\icons\apple-touch-icon.png"
       inkscape:export-xdpi="96"
       inkscape:export-ydpi="96" /><g
       id="g28"
       transform="matrix(6.7076187,0,0,6.7076187,1577.0563,-2033.0269)"><path
         style="fill:none;stroke:#f5f5f5;stroke-width:0.529167;stroke-linecap:round;stroke-linejoin:round;stroke-dasharray:none;paint-order:stroke fill markers"
         d="m -303.10889,354.99997 v -4.99999 l 8.66027,-4.99999 8.66026,4.99999 v 10.00001 l -8.66026,4.99999 -8.66027,-4.99999 z"
         id="path24" /><path
         style="fill:none;stroke:#f5f5f5;stroke-width:0.132292;stroke-linecap:round;stroke-linejoin:round;stroke-dasharray:none;paint-order:stroke fill markers"
         d="m -303.10888,349.99998 8.66026,4.99999"
         id="path25"
         sodipodi:nodetypes="cc" /><path
         style="fill:none;stroke:#f5f5f5;stroke-width:0.132292;stroke-linecap:round;stroke-linejoin:round;stroke-dasharray:none;paint-order:stroke fill markers"
         d="M -294.44862,364.99998 V 354.99997"
         id="path26"
         sodipodi:nodetypes="cc" /><path
         style="fill:none;stroke:#f5f5f5;stroke-width:0.132292;stroke-linecap:round;stroke-linejoin:round;stroke-dasharray:none;paint-order:stroke fill markers"
         d="m -285.78837,349.99998 -8.66025,4.99999"
         id="path27"
         sodipodi:nodetypes="cc" /><path
         d="m -297.91256,348.57045 v 1.42937 c -5e-5,0.10201 0.0117,0.2039 0.0351,0.30489 0.0234,0.10098 0.0585,0.2008 0.10491,0.29869 0.0465,0.0977 0.10414,0.19317 0.1726,0.28577 0.0686,0.0928 0.14789,0.1824 0.23719,0.2682 0.0892,0.0857 0.18812,0.16741 0.29611,0.24443 0.10797,0.0771 0.22471,0.14923 0.34933,0.216 0.1247,0.0669 0.25699,0.12822 0.39584,0.18346 0.13871,0.0551 0.2836,0.10393 0.43357,0.14624 0.15021,0.0423 0.30511,0.0778 0.46353,0.10645 0.15818,0.0288 0.31947,0.0505 0.48266,0.0651 0.16329,0.0145 0.32804,0.0217 0.49299,0.0217 0.16496,3e-5 0.32971,-0.007 0.493,-0.0217 0.16336,-0.0146 0.32483,-0.0363 0.48317,-0.0651 0.15824,-0.0286 0.31298,-0.0642 0.46302,-0.10645 0.14997,-0.0423 0.29486,-0.0912 0.43357,-0.14624 0.13885,-0.0552 0.27114,-0.11655 0.39584,-0.18346 0.12461,-0.0668 0.24136,-0.13895 0.34933,-0.216 0.10799,-0.077 0.20695,-0.1587 0.29611,-0.24443 0.0893,-0.0858 0.16857,-0.17542 0.23719,-0.2682 0.0685,-0.0926 0.12614,-0.1881 0.1726,-0.28577 0.0464,-0.0979 0.0815,-0.19771 0.1049,-0.29869 0.0236,-0.10098 0.0356,-0.20287 0.0357,-0.30489 v -1.42937 c -1.5e-4,0.10185 -0.0121,0.20357 -0.0357,0.30437 -0.0234,0.10098 -0.0585,0.2008 -0.1049,0.29869 -0.0195,0.0353 -0.0405,0.0703 -0.063,0.1049 -0.0321,0.0614 -0.0686,0.12198 -0.10956,0.18139 -0.0686,0.0928 -0.14789,0.1824 -0.23719,0.2682 -0.0892,0.0857 -0.18812,0.16741 -0.29611,0.24443 -0.10797,0.0771 -0.22472,0.14923 -0.34933,0.216 -0.12473,0.0667 -0.25702,0.12786 -0.39584,0.18294 -0.13871,0.0551 -0.2836,0.10393 -0.43357,0.14624 -0.15002,0.0424 -0.30475,0.0782 -0.46302,0.10697 -0.15834,0.0288 -0.31981,0.0506 -0.48317,0.0651 -0.16329,0.0145 -0.32804,0.0217 -0.493,0.0217 -0.16495,3e-5 -0.3297,-0.007 -0.49299,-0.0217 -0.16319,-0.0146 -0.32448,-0.0363 -0.48266,-0.0651 -0.15844,-0.0288 -0.31335,-0.0645 -0.46353,-0.10697 -0.14997,-0.0423 -0.29486,-0.0912 -0.43357,-0.14624 -0.13883,-0.0551 -0.27111,-0.11621 -0.39584,-0.18294 -0.12462,-0.0668 -0.24136,-0.13895 -0.34933,-0.216 -0.10799,-0.077 -0.20695,-0.1587 -0.29611,-0.24443 -0.0893,-0.0858 -0.16857,-0.17542 -0.23719,-0.2682 -0.0392,-0.0572 -0.0744,-0.11553 -0.10542,-0.17467 -0.0241,-0.0368 -0.0465,-0.074 -0.0672,-0.11162 -0.0464,-0.0979 -0.0815,-0.19771 -0.10491,-0.29869 -0.0234,-0.10081 -0.0352,-0.20253 -0.0351,-0.30437 z"
         style="fill:none;stroke:#f5f5f5;stroke-width:0.132292;stroke-linecap:round;stroke-linejoin:round;stroke-dasharray:none;paint-order:stroke fill markers"
         id="path28" /><ellipse
         style="fill:none;stroke:#f5f5f5;stroke-width:0.132292;stroke-linecap:round;stroke-linejoin:round;stroke-dasharray:none;paint-order:stroke fill markers"
         id="ellipse28"
         cx="-294.44864"
         cy="348.57391"
         rx="3.4641016"
         ry="2.1409323" /></g></g></svg>
