<?xml version="1.0" encoding="UTF-8" standalone="no"?>
<!-- Created with Inkscape (http://www.inkscape.org/) -->

<svg
   width="90"
   height="90"
   viewBox="0 0 23.812499 23.812501"
   version="1.1"
   id="svg853"
   inkscape:version="1.1.2 (b8e25be833, 2022-02-05)"
   sodipodi:docname="game_over.svg"
   xmlns:inkscape="http://www.inkscape.org/namespaces/inkscape"
   xmlns:sodipodi="http://sodipodi.sourceforge.net/DTD/sodipodi-0.dtd"
   xmlns="http://www.w3.org/2000/svg"
   xmlns:svg="http://www.w3.org/2000/svg">
  <sodipodi:namedview
     id="namedview855"
     pagecolor="#505050"
     bordercolor="#eeeeee"
     borderopacity="1"
     inkscape:pageshadow="0"
     inkscape:pageopacity="0"
     inkscape:pagecheckerboard="0"
     inkscape:document-units="px"
     showgrid="false"
     units="px"
     inkscape:zoom="4.0718557"
     inkscape:cx="21.857356"
     inkscape:cy="65.94045"
     inkscape:window-width="1920"
     inkscape:window-height="1001"
     inkscape:window-x="-9"
     inkscape:window-y="-9"
     inkscape:window-maximized="1"
     inkscape:current-layer="layer1" />
  <defs
     id="defs850" />
  <g
     inkscape:label="Слой 1"
     inkscape:groupmode="layer"
     id="layer1">
    <path
       d="M 17.160543,5.8635343 C 17.015848,5.7147062 16.817405,5.6320239 16.609681,5.6320239 c -0.207725,0 -0.406189,0.082682 -0.550863,0.2315104 L 15.044935,6.8774176 14.03002,5.8635343 C 13.886359,5.7002361 13.681722,5.6030838 13.464684,5.5958554 c -0.217037,-0.00723 -0.427884,0.07648 -0.581871,0.2304758 -0.153996,0.152961 -0.236678,0.3638021 -0.229444,0.5808398 0.0072,0.2180749 0.103351,0.4227248 0.266647,0.5653352 l 1.013883,1.0138834 -1.013883,1.0138833 v 0.00103 c -0.147794,0.1457273 -0.231511,0.34417 -0.231511,0.5508625 0,0.2077403 0.08372,0.4061884 0.231511,0.5518946 0.146762,0.148828 0.346234,0.23151 0.555016,0.23151 0.208772,0 0.408252,-0.08268 0.555017,-0.23151 l 1.013883,-1.0066604 1.013883,1.0066604 h 10e-4 c 0.303848,0.303847 0.797878,0.303847 1.101752,0 0.304879,-0.3048796 0.304879,-0.7978777 0,-1.1027835 L 16.146715,7.987395 17.160599,6.9735116 v -0.00103 c 0.148828,-0.1457272 0.232545,-0.3462338 0.232545,-0.5539846 0,-0.2087721 -0.08372,-0.409284 -0.232545,-0.5550165 z"
       id="path2"
       style="stroke-width:0.264583;fill:#f45d01;fill-opacity:1" />
    <path
       d="m 9.7823724,10.104011 c 0.1467617,0.148828 0.3462336,0.231511 0.5550166,0.231511 0.208772,0 0.408252,-0.08268 0.555016,-0.231511 0.147794,-0.1457269 0.231511,-0.3441697 0.231511,-0.551894 0,-0.2067058 -0.08372,-0.40513 -0.231511,-0.5508625 L 9.878522,7.9873712 10.892405,6.9734878 V 6.972456 C 11.165244,6.6613589 11.149755,6.1911149 10.857266,5.8986181 10.563737,5.6050893 10.093493,5.5895847 9.7823962,5.8634787 L 8.7685129,6.8773621 7.7535977,5.8634787 C 7.6089024,5.7146506 7.4104596,5.6319683 7.2027352,5.6319683 c -0.2077244,0 -0.4061883,0.082682 -0.5508625,0.2315104 -0.1488281,0.1457273 -0.2325449,0.3462338 -0.2325449,0.5550165 0,0.2077402 0.083717,0.4082521 0.2325449,0.5539846 L 7.665756,7.9863631 6.6518727,9.0002464 v 0.00103 c -0.3048794,0.3048794 -0.3048794,0.7978775 0,1.1027836 0.3038475,0.303847 0.7978775,0.303847 1.1017515,0 L 8.7675075,9.0974014 Z"
       id="path4"
       style="stroke-width:0.264583;fill:#f45d01;fill-opacity:1" />
    <path
       d="M 15.043877,12.691107 H 8.7682245 c -0.4030662,0.03927 -0.7110677,0.377243 -0.7110677,0.782373 0,0.40513 0.3080015,0.744141 0.7110677,0.783405 h 6.2767105 -0.001 c 0.403066,-0.03927 0.711068,-0.378275 0.711068,-0.783405 0,-0.40513 -0.308002,-0.743109 -0.711068,-0.782373 z"
       id="path6"
       style="stroke-width:0.264583;fill:#f45d01;fill-opacity:1" />
    <path
       d="M 22.974233,0.83645104 C 22.537062,0.39099855 21.937595,0.1419198 21.313364,0.14501542 H 2.4991077 C 1.2020409,0.14914927 0.15093066,1.2002531 0.14680316,2.49732 v 14.897364 c 0.004134,1.297067 1.05523774,2.348177 2.35230454,2.352305 h 8.6206543 v 2.352304 l -3.1305502,-10e-4 c -0.2211758,-0.0217 -0.4402931,0.05168 -0.6046258,0.200503 -0.1643327,0.148829 -0.2583815,0.360707 -0.2583815,0.581872 0,0.222208 0.094051,0.434076 0.2583815,0.582904 0.16433,0.148828 0.3834341,0.221175 0.6046258,0.200504 H 15.82326 c 0.221175,0.02067 0.440293,-0.05168 0.604625,-0.200504 0.164333,-0.148828 0.258382,-0.360707 0.258382,-0.582904 0,-0.221176 -0.09405,-0.433043 -0.258382,-0.581872 -0.16433,-0.148828 -0.383434,-0.222207 -0.604625,-0.200503 h -3.13055 v -2.352305 l 8.620654,0.001 c 1.297067,-0.0041 2.348177,-1.055238 2.352304,-2.352305 V 2.49732 c 0.0031,-0.6242579 -0.24598,-1.2236979 -0.691435,-1.66086896 z M 22.099864,17.394605 c -0.0021,0.20774 -0.08682,0.406188 -0.234611,0.550862 -0.143661,0.150895 -0.34417,0.233577 -0.551895,0.22841 H 2.4991024 C 2.0691545,18.169744 1.720857,17.824548 1.7125756,17.3946 V 2.4972353 C 1.7198093,2.0662555 2.0681226,1.717958 2.4991024,1.7107084 H 21.313358 c 0.43098,0.00723 0.779278,0.3555471 0.786527,0.7865269 z"
       id="path8"
       style="stroke-width:0.264583;stroke:none;stroke-opacity:1;fill:#f45d01;fill-opacity:1" />
  </g>
</svg>
