<?xml version="1.0" encoding="UTF-8" standalone="no"?>
<!-- Created with Inkscape (http://www.inkscape.org/) -->

<svg
   width="40"
   height="40"
   viewBox="0 0 10.583333 10.583334"
   version="1.1"
   id="svg5"
   sodipodi:docname="help.svg"
   inkscape:version="1.3 (0e150ed6c4, 2023-07-21)"
   xmlns:inkscape="http://www.inkscape.org/namespaces/inkscape"
   xmlns:sodipodi="http://sodipodi.sourceforge.net/DTD/sodipodi-0.dtd"
   xmlns="http://www.w3.org/2000/svg"
   xmlns:svg="http://www.w3.org/2000/svg">
  <sodipodi:namedview
     id="namedview7"
     pagecolor="#505050"
     bordercolor="#eeeeee"
     borderopacity="1"
     inkscape:pageshadow="0"
     inkscape:pageopacity="0"
     inkscape:pagecheckerboard="0"
     inkscape:document-units="px"
     showgrid="true"
     units="px"
     inkscape:snap-bbox="true"
     inkscape:bbox-paths="true"
     inkscape:bbox-nodes="true"
     inkscape:snap-bbox-edge-midpoints="true"
     inkscape:snap-bbox-midpoints="true"
     inkscape:snap-center="true"
     inkscape:snap-object-midpoints="true"
     showguides="true"
     inkscape:guide-bbox="true"
     inkscape:zoom="9.7378238"
     inkscape:cx="10.06385"
     inkscape:cy="21.668086"
     inkscape:window-width="1600"
     inkscape:window-height="878"
     inkscape:window-x="-8"
     inkscape:window-y="-8"
     inkscape:window-maximized="1"
     inkscape:current-layer="layer1"
     inkscape:showpageshadow="2"
     inkscape:deskcolor="#d1d1d1">
    <inkscape:grid
       type="xygrid"
       id="grid946"
       originx="0"
       originy="0"
       spacingy="1"
       spacingx="1"
       units="px"
       visible="true" />
    <sodipodi:guide
       position="6.614583,9.7895836"
       orientation="0,-1"
       id="guide1655"
       inkscape:locked="false" />
    <sodipodi:guide
       position="6.614583,3.4395834"
       orientation="0,-1"
       id="guide1657"
       inkscape:locked="false" />
  </sodipodi:namedview>
  <defs
     id="defs2" />
  <g
     inkscape:label="Слой 1"
     inkscape:groupmode="layer"
     id="layer1">
    <path
       id="rect1"
       style="fill:#f5f5f5;stroke-width:0.529167;stroke-linecap:square;stroke-linejoin:round;paint-order:markers fill stroke"
       d="M 1.3229167,0 C 0.59002226,0 0,0.59002226 0,1.3229167 v 7.9375001 c 0,0.7328945 0.59002226,1.3229162 1.3229167,1.3229162 h 7.9375001 c 0.7328945,0 1.3229162,-0.5900217 1.3229162,-1.3229162 V 1.3229167 C 10.583333,0.59002226 9.9933113,0 9.2604168,0 Z m 3.96875,2.7310995 c 0.7581352,0 1.3751099,0.6169816 1.3751099,1.3751099 v 0.013436 c 0,0.4011399 -0.1561901,0.778158 -0.4397664,1.0619507 l -0.521932,0.521932 c -0.057277,0.057269 -0.088883,0.1332204 -0.088883,0.2144572 v 0.45837 c 0,0.2261322 -0.1837237,0.4095151 -0.4097941,0.4097941 C 4.9803304,6.7858702 4.7960898,6.6019706 4.7960898,6.3758383 V 5.9179851 c 0,-0.2999716 0.1169979,-0.5825913 0.3291788,-0.7947835 l 0.521932,-0.521932 c 0.1286711,-0.128669 0.199471,-0.299723 0.199471,-0.4816244 v -0.013436 c 0,-0.3060298 -0.2489711,-0.5550049 -0.5550049,-0.5550049 -0.3060313,0 -0.5550048,0.2489751 -0.5550048,0.5550049 0,0.2263042 -0.1834878,0.4097941 -0.4097942,0.4097941 -0.2263064,0 -0.4103108,-0.1834899 -0.4103108,-0.4097941 0,-0.7581155 0.6169742,-1.3751099 1.3751098,-1.3751097 z m -0.082166,4.2819092 c 0.2263059,0 0.4103109,0.1834895 0.4103109,0.4097942 v 0.01912 c 0,0.2263047 -0.184005,0.4103113 -0.4103109,0.4103109 -0.2263068,0 -0.4097941,-0.1840062 -0.4097941,-0.4103109 v -0.01912 c 0,-0.2263047 0.1834873,-0.4097942 0.4097941,-0.4097942 z" />
  </g>
</svg>
