<?xml version="1.0" encoding="UTF-8" standalone="no"?>
<!-- Created with Inkscape (http://www.inkscape.org/) -->

<svg
   width="50"
   height="50"
   viewBox="0 0 13.229166 13.229168"
   version="1.1"
   id="svg5"
   sodipodi:docname="help.svg"
   inkscape:version="1.3 (0e150ed6c4, 2023-07-21)"
   xmlns:inkscape="http://www.inkscape.org/namespaces/inkscape"
   xmlns:sodipodi="http://sodipodi.sourceforge.net/DTD/sodipodi-0.dtd"
   xmlns="http://www.w3.org/2000/svg"
   xmlns:svg="http://www.w3.org/2000/svg">
  <sodipodi:namedview
     id="namedview7"
     pagecolor="#505050"
     bordercolor="#eeeeee"
     borderopacity="1"
     inkscape:pageshadow="0"
     inkscape:pageopacity="0"
     inkscape:pagecheckerboard="0"
     inkscape:document-units="px"
     showgrid="true"
     units="px"
     inkscape:snap-bbox="true"
     inkscape:bbox-paths="true"
     inkscape:bbox-nodes="true"
     inkscape:snap-bbox-edge-midpoints="true"
     inkscape:snap-bbox-midpoints="true"
     inkscape:snap-center="true"
     inkscape:snap-object-midpoints="true"
     showguides="true"
     inkscape:guide-bbox="true"
     inkscape:zoom="4.8689119"
     inkscape:cx="18.176546"
     inkscape:cy="49.497713"
     inkscape:window-width="1600"
     inkscape:window-height="838"
     inkscape:window-x="-8"
     inkscape:window-y="-8"
     inkscape:window-maximized="1"
     inkscape:current-layer="layer1"
     inkscape:showpageshadow="2"
     inkscape:deskcolor="#d1d1d1">
    <inkscape:grid
       type="xygrid"
       id="grid946"
       originx="0"
       originy="0"
       spacingy="1"
       spacingx="1"
       units="px"
       visible="true" />
    <sodipodi:guide
       position="6.6145829,9.7895835"
       orientation="0,-1"
       id="guide1655"
       inkscape:locked="false" />
    <sodipodi:guide
       position="6.6145829,3.4395834"
       orientation="0,-1"
       id="guide1657"
       inkscape:locked="false" />
  </sodipodi:namedview>
  <defs
     id="defs2" />
  <g
     inkscape:label="Слой 1"
     inkscape:groupmode="layer"
     id="layer1">
    <g
       id="g2"
       inkscape:export-filename="help.svg"
       inkscape:export-xdpi="96"
       inkscape:export-ydpi="96">
      <path
         style="fill:#f5f5f5;stroke-width:0.661458;stroke-linecap:square;stroke-linejoin:round;paint-order:markers fill stroke"
         d="m 6.5118762,8.7662614 c 0.2828825,0 0.5128887,0.2293619 0.5128887,0.5122427 v 0.0239 c 0,0.282881 -0.2300062,0.5128892 -0.5128887,0.5128887 -0.2828835,0 -0.5122426,-0.2300077 -0.5122426,-0.5128887 v -0.0239 c 0,-0.2828808 0.2293591,-0.5122427 0.5122426,-0.5122427 z"
         id="path2" />
      <path
         style="fill:#f5f5f5;stroke-width:0.661458;stroke-linecap:square;stroke-linejoin:round;paint-order:markers fill stroke"
         d="m 6.6145838,3.4138745 c 0.947669,0 1.7188875,0.7712271 1.7188875,1.7188875 v 0.016795 c 0,0.501425 -0.1952377,0.9726976 -0.5497081,1.3274385 l -0.652415,0.652415 C 7.0597519,7.2009968 7.0202444,7.295936 7.0202444,7.3974821 v 0.5729625 c 0,0.2826653 -0.2296547,0.5118939 -0.5122426,0.5122426 C 6.2254133,8.4823382 5.9951126,8.2524637 5.9951126,7.9697983 V 7.3974818 c 0,-0.3749645 0.1462474,-0.7282391 0.4114735,-0.9934794 l 0.652415,-0.652415 C 7.21984,5.5907511 7.3083399,5.3769336 7.3083399,5.1495568 v -0.016795 c 0,-0.3825373 -0.3112138,-0.6937562 -0.6937561,-0.6937562 -0.3825392,0 -0.6937561,0.3112189 -0.6937561,0.6937562 0,0.2828802 -0.2293598,0.5122426 -0.5122427,0.5122426 -0.2828831,0 -0.5128886,-0.2293624 -0.5128886,-0.5122426 0,-0.9476444 0.7712178,-1.7188875 1.7188874,-1.7188873 z"
         id="path1" />
      <path
         style="fill:none;stroke:#f5f5f5;stroke-width:0.533229;stroke-linecap:round;stroke-linejoin:round;stroke-dasharray:none;stroke-opacity:1;paint-order:stroke fill markers"
         d="m 1.8536075,0.26661424 c -0.87919211,0 -1.58699249,0.70780024 -1.58699249,1.58699246 v 9.5219543 c 0,0.879192 0.70780038,1.586992 1.58699249,1.586992 h 9.5219535 c 0.879192,0 1.586991,-0.7078 1.586991,-1.586992 V 1.8536067 c 0,-0.87919222 -0.707799,-1.58699246 -1.586991,-1.58699246 z"
         id="rect1" />
    </g>
  </g>
</svg>
