<?xml version="1.0" encoding="UTF-8" standalone="no"?>
<!-- Created with Inkscape (http://www.inkscape.org/) -->

<svg
   width="32.528572"
   height="26.212692"
   viewBox="0 0 8.6065178 6.9354419"
   version="1.1"
   id="svg5"
   inkscape:version="1.1.2 (b8e25be833, 2022-02-05)"
   sodipodi:docname="ng.svg"
   xmlns:inkscape="http://www.inkscape.org/namespaces/inkscape"
   xmlns:sodipodi="http://sodipodi.sourceforge.net/DTD/sodipodi-0.dtd"
   xmlns="http://www.w3.org/2000/svg"
   xmlns:svg="http://www.w3.org/2000/svg">
  <sodipodi:namedview
     id="namedview7"
     pagecolor="#505050"
     bordercolor="#eeeeee"
     borderopacity="1"
     inkscape:pageshadow="0"
     inkscape:pageopacity="0"
     inkscape:pagecheckerboard="0"
     inkscape:document-units="px"
     showgrid="true"
     units="px"
     inkscape:snap-bbox="true"
     inkscape:bbox-paths="true"
     inkscape:bbox-nodes="true"
     inkscape:snap-bbox-edge-midpoints="true"
     inkscape:snap-bbox-midpoints="true"
     inkscape:snap-center="true"
     inkscape:snap-object-midpoints="true"
     showguides="true"
     inkscape:guide-bbox="true"
     inkscape:zoom="9.7375003"
     inkscape:cx="7.8048778"
     inkscape:cy="18.844672"
     inkscape:window-width="1920"
     inkscape:window-height="1001"
     inkscape:window-x="-9"
     inkscape:window-y="-9"
     inkscape:window-maximized="1"
     inkscape:current-layer="layer1"
     inkscape:showpageshadow="2"
     inkscape:deskcolor="#d1d1d1">
    <inkscape:grid
       type="xygrid"
       id="grid946"
       originx="-3.7357146"
       originy="-6.8936537"
       spacingy="1"
       spacingx="1"
       units="px"
       visible="true" />
    <sodipodi:guide
       position="5.6261752,11.61353"
       orientation="0,-1"
       id="guide1655"
       inkscape:locked="false" />
    <sodipodi:guide
       position="5.6261752,5.2635293"
       orientation="0,-1"
       id="guide1657"
       inkscape:locked="false" />
  </sodipodi:namedview>
  <defs
     id="defs2" />
  <g
     inkscape:label="Слой 1"
     inkscape:groupmode="layer"
     id="layer1"
     transform="translate(-0.98840784,-1.8239459)">
    <path
       d="m 9.4750152,2.8600768 c 0.1598806,1.5439196 0.1598806,3.3193557 0,4.86318 -0.042954,0.414262 -0.3559951,0.7332782 -0.7672641,0.7960293 -2.0914876,0.3201352 -4.7406802,0.3201352 -6.832168,0 C 1.4643048,8.4565301 1.1512749,8.1375188 1.1083186,7.7232568 c -0.15988097,-1.5431549 -0.15988097,-3.320121 0,-4.86318 0.042958,-0.4142621 0.3559957,-0.7332783 0.7672645,-0.7960296 2.0918703,-0.320135 4.7402974,-0.320135 6.832168,0 0.4112784,0.062756 0.7243079,0.3813946 0.7672641,0.7960296 z M 3.4523418,4.7812504 H 4.3103862 L 3.8811775,3.7936007 Z M 4.4194313,5.0319018 H 3.3436123 L 3.1523556,5.4723182 C 3.0869851,5.6224834 2.8580019,5.5227466 2.9233735,5.3722049 L 3.7672172,3.4294193 c 0.044452,-0.1016052 0.1867718,-0.097493 0.2289821,0 l 0.5472524,1.2596166 c 0,-0.3182607 -0.044453,-0.5767537 0.175937,-0.7971483 C 4.8280895,3.7831868 4.9778817,3.7159505 5.1429936,3.7159505 H 5.7896039 V 3.3595819 c 0,-0.1916297 -0.1572608,-0.3488905 -0.3492634,-0.3488905 l -3.1176756,3.723e-4 c -0.1916297,0 -0.3488905,0.1572608 -0.3488905,0.3488905 v 2.1822397 c 0,0.1923755 0.1565149,0.3492634 0.3488905,0.3492634 h 0.081807 c 0.072842,3.723e-4 0.131116,0.062382 0.1247662,0.1356009 L 2.4918833,6.4644815 3.180331,5.92246 C 3.20237,5.903036 3.231508,5.891456 3.262885,5.891456 h 1.28056 V 5.3165664 Z m 1.679425,0.4385421 C 6.2146527,5.6572157 6.34727,5.8185885 6.4966896,5.9549354 6.2927332,6.0841867 6.061131,6.1719639 5.8011463,6.2179134 5.6386546,6.2466763 5.6819837,6.4932178 5.8441044,6.4644529 6.167596,6.4072996 6.453735,6.2918723 6.7021486,6.1189189 6.9539188,6.2926183 7.2344546,6.4072958 7.5598206,6.4644529 7.6278063,6.4764064 7.692801,6.4308335 7.7047545,6.3624748 7.7436034,6.1402153 7.4122658,6.2754376 6.9072339,5.9545624 7.1765608,5.7091418 7.3906061,5.38303 7.5493587,4.9762844 c 0.2289821,0 0.1815407,-0.2506515 0.032125,-0.2506515 H 6.9300151 c 0,-0.1669767 0.038479,-0.3787744 -0.1255119,-0.3787744 -0.1639832,0 -0.1255121,0.2114248 -0.1255121,0.3787744 H 6.027522 c -0.165112,0 -0.165112,0.2506515 0,0.2506515 H 7.2789145 C 7.1324899,5.3191981 6.9416062,5.594885 6.7017801,5.8021979 6.5538522,5.6748208 6.4238647,5.5201707 6.3110519,5.3386203 6.2247626,5.1992897 6.0125863,5.3307759 6.0988719,5.4704822 Z M 7.40294,6.8787627 8.0913882,7.420784 8.0540334,6.983361 C 8.048025,6.910146 8.1059611,6.8481329 8.1788001,6.8477599 v -3.722e-4 c 0.1273771,0 0.2245063,0.0015 0.3287218,-0.1027239 0.063134,-0.063131 0.1019785,-0.1501653 0.1019785,-0.2465394 l 3.615e-4,-2.1822392 c 0,-0.1916297 -0.1572609,-0.3488904 -0.3488908,-0.3488904 H 5.1430089 c -0.1916297,0 -0.3488905,0.1572607 -0.3488905,0.3488904 v 2.1826216 c 0,0.1916297 0.1572608,0.3488904 0.3488905,0.3488904 h 2.1774579 c 0.031747,0 0.060514,0.011954 0.082558,0.031377 z m 0.760542,0.9170567 c 0.087037,0.068359 0.2106791,-0.00299 0.2020918,-0.1087005 L 8.3147713,7.0954182 C 8.6203324,7.0674022 8.8601491,6.8077873 8.8601491,6.498114 l 3.615e-4,-2.1822391 c 0,-0.3298412 -0.2697005,-0.5999148 -0.5999148,-0.5999148 L 6.0402006,3.716333 V 3.3599645 c 0,-0.3302144 -0.2697006,-0.599915 -0.5999147,-0.599915 H 2.3226217 c -0.3302141,0 -0.5999148,0.2697006 -0.5999148,0.599915 v 2.1822389 c 0,0.3096733 0.2398167,0.5692851 0.5453781,0.5973043 L 2.2172827,6.7312081 C 2.2083165,6.8365523 2.3323331,6.9082736 2.419374,6.8399089 L 3.3058009,6.1421183 H 4.5430405 V 6.498487 c 0,0.3302142 0.2697006,0.5999148 0.5999149,0.5999148 H 7.27738 Z M 9.344301,5.2915041 c 0,-0.8244215 -0.039218,-1.6470071 -0.1180436,-2.4060094 -0.031,-0.3003304 -0.2566289,-0.5281936 -0.5558396,-0.5737701 -2.0660506,-0.316023 -4.6914317,-0.316023 -6.7578646,0 -0.2992116,0.045946 -0.5244642,0.2738128 -0.5558398,0.5737701 -0.1572609,1.5177177 -0.1572609,3.2943013 0,4.8120189 0.031004,0.3003303 0.2566282,0.5281934 0.5558398,0.5737701 2.0657635,0.3160227 4.6921005,0.3160227 6.7578646,0 C 8.9696285,8.2253373 9.1952547,7.9978439 9.2262574,7.6975136 9.3050717,6.9384635 9.344301,6.1159162 9.344301,5.2915041 Z"
       fill-rule="evenodd"
       id="path1"
       style="stroke-width:0.0956286" />
  </g>
</svg>
