<?xml version="1.0" encoding="UTF-8" standalone="no"?>
<!-- Created with Inkscape (http://www.inkscape.org/) -->

<svg
   width="50"
   height="50"
   viewBox="0 0 13.229166 13.229167"
   version="1.1"
   id="svg5"
   inkscape:version="1.3 (0e150ed6c4, 2023-07-21)"
   sodipodi:docname="ng.svg"
   xmlns:inkscape="http://www.inkscape.org/namespaces/inkscape"
   xmlns:sodipodi="http://sodipodi.sourceforge.net/DTD/sodipodi-0.dtd"
   xmlns="http://www.w3.org/2000/svg"
   xmlns:svg="http://www.w3.org/2000/svg">
  <sodipodi:namedview
     id="namedview7"
     pagecolor="#505050"
     bordercolor="#eeeeee"
     borderopacity="1"
     inkscape:pageshadow="0"
     inkscape:pageopacity="0"
     inkscape:pagecheckerboard="0"
     inkscape:document-units="px"
     showgrid="true"
     units="px"
     inkscape:snap-bbox="true"
     inkscape:bbox-paths="true"
     inkscape:bbox-nodes="true"
     inkscape:snap-bbox-edge-midpoints="true"
     inkscape:snap-bbox-midpoints="true"
     inkscape:snap-center="true"
     inkscape:snap-object-midpoints="true"
     showguides="true"
     inkscape:guide-bbox="true"
     inkscape:zoom="3.4427263"
     inkscape:cx="8.278323"
     inkscape:cy="63.612377"
     inkscape:window-width="1600"
     inkscape:window-height="878"
     inkscape:window-x="-8"
     inkscape:window-y="-8"
     inkscape:window-maximized="1"
     inkscape:current-layer="layer1"
     inkscape:showpageshadow="2"
     inkscape:deskcolor="#d1d1d1">
    <inkscape:grid
       type="xygrid"
       id="grid946"
       originx="0.012193515"
       originy="0.012193515"
       spacingy="1"
       spacingx="1"
       units="px"
       visible="true" />
    <sodipodi:guide
       position="6.6178093,9.7863575"
       orientation="0,-1"
       id="guide1655"
       inkscape:locked="false" />
    <sodipodi:guide
       position="6.6178093,3.4363572"
       orientation="0,-1"
       id="guide1657"
       inkscape:locked="false" />
  </sodipodi:namedview>
  <defs
     id="defs2" />
  <g
     inkscape:label="Слой 1"
     inkscape:groupmode="layer"
     id="layer1"
     transform="translate(0.0032262,0.0032262)">
    <path
       id="rect1"
       style="opacity:1;fill:#f5f5f5;fill-opacity:1;stroke-width:0.66146;stroke-linecap:square;stroke-linejoin:round;paint-order:markers fill stroke"
       d="m 1.6504198,-0.0032262 c -0.91611815,0 -1.653646,0.73752785 -1.653646,1.653646 v 9.9218752 c 0,0.916118 0.73752785,1.653645 1.653646,1.653645 h 9.9218752 c 0.916118,0 1.653645,-0.737527 1.653645,-1.653645 V 1.6504198 c 0,-0.91611815 -0.737527,-1.653646 -1.653645,-1.653646 z M 6.6113575,3.139347 c 1.1730434,0 2.2610522,0.606454 2.8951724,1.5638582 L 9.6589752,4.4745369 c 0.049088,-0.074686 0.1424679,-0.1081588 0.2280223,-0.082036 0.085555,0.025946 0.1442785,0.1057875 0.1434015,0.1957244 l -0.0071,1.5754853 c -1.75e-4,0.019987 -0.0042,0.039377 -0.01034,0.058137 -0.022617,0.083625 -0.099097,0.1453399 -0.1899102,0.1453399 -0.029804,0 -0.057261,-0.00699 -0.082682,-0.018732 -0.00106,-3.505e-4 -0.00247,-1.201e-4 -0.00387,-6.459e-4 L 8.3063447,5.704436 C 8.2244721,5.6676198 8.1766808,5.5809772 8.1887809,5.4919168 8.2007059,5.4028555 8.2699571,5.3326505 8.3586671,5.3188008 l 0.244817,-0.038111 C 8.1644912,4.6257064 7.4167621,4.2116331 6.6113575,4.2116331 c -0.98563,0 -1.8846773,0.620321 -2.2375896,1.5431876 C 4.2678767,6.0314706 3.9579533,6.1697744 3.6813036,6.0642333 3.4046537,5.9583418 3.2659999,5.6484186 3.3718909,5.371769 3.8825882,4.0365579 5.1842805,3.139347 6.6113575,3.139347 Z M 3.399667,6.8555286 c 0.029629,0 0.057613,0.00699 0.082682,0.018732 0.00141,3.507e-4 0.00247,7.659e-4 0.00387,0.00129 L 4.9163644,7.518923 c 0.081872,0.036642 0.1296638,0.1229875 0.1175637,0.2118734 -0.011925,0.089411 -0.081,0.159912 -0.1698862,0.173762 l -0.2441711,0.037465 c 0.4389931,0.6553342 1.1858999,1.0697022 1.9914805,1.0697022 0.9856309,0 1.8853229,-0.62032 2.2382356,-1.5431875 C 8.9553075,7.1917103 9.2650549,7.0532312 9.5420554,7.1591228 9.8187056,7.265189 9.9573592,7.5746419 9.851468,7.8509409 9.3407702,9.1863289 8.0386095,10.084008 6.6113556,10.084008 c -1.1733952,0 -2.2605807,-0.6075688 -2.8945263,-1.5651491 L 3.5643858,8.748824 C 3.5149464,8.8238591 3.4220933,8.8565119 3.3363634,8.8302145 3.2509843,8.8046182 3.1920847,8.7252483 3.1929613,8.6351359 l 0.0071,-1.5754853 c 1.749e-4,-0.01981 0.0039,-0.039552 0.00969,-0.058137 0.022791,-0.08345 0.098921,-0.145986 0.1899109,-0.145986 z"
       inkscape:export-filename="ng.svg"
       inkscape:export-xdpi="96"
       inkscape:export-ydpi="96" />
  </g>
</svg>
