<?xml version="1.0" encoding="UTF-8" standalone="no"?>
<!-- Created with Inkscape (http://www.inkscape.org/) -->

<svg
   width="40"
   height="40"
   viewBox="0 0 10.583333 10.583334"
   version="1.1"
   id="svg5"
   inkscape:version="1.3 (0e150ed6c4, 2023-07-21)"
   sodipodi:docname="ng.svg"
   xmlns:inkscape="http://www.inkscape.org/namespaces/inkscape"
   xmlns:sodipodi="http://sodipodi.sourceforge.net/DTD/sodipodi-0.dtd"
   xmlns="http://www.w3.org/2000/svg"
   xmlns:svg="http://www.w3.org/2000/svg">
  <sodipodi:namedview
     id="namedview7"
     pagecolor="#505050"
     bordercolor="#eeeeee"
     borderopacity="1"
     inkscape:pageshadow="0"
     inkscape:pageopacity="0"
     inkscape:pagecheckerboard="0"
     inkscape:document-units="px"
     showgrid="true"
     units="px"
     inkscape:snap-bbox="true"
     inkscape:bbox-paths="true"
     inkscape:bbox-nodes="true"
     inkscape:snap-bbox-edge-midpoints="true"
     inkscape:snap-bbox-midpoints="true"
     inkscape:snap-center="true"
     inkscape:snap-object-midpoints="true"
     showguides="true"
     inkscape:guide-bbox="true"
     inkscape:zoom="6.8854525"
     inkscape:cx="15.612627"
     inkscape:cy="20.623191"
     inkscape:window-width="1600"
     inkscape:window-height="878"
     inkscape:window-x="-8"
     inkscape:window-y="-8"
     inkscape:window-maximized="1"
     inkscape:current-layer="layer1"
     inkscape:showpageshadow="2"
     inkscape:deskcolor="#d1d1d1">
    <inkscape:grid
       type="xygrid"
       id="grid946"
       originx="0.012191115"
       originy="0.012191115"
       spacingy="1"
       spacingx="1"
       units="px"
       visible="true" />
    <sodipodi:guide
       position="6.6178086,9.786358"
       orientation="0,-1"
       id="guide1655"
       inkscape:locked="false" />
    <sodipodi:guide
       position="6.6178086,3.4363578"
       orientation="0,-1"
       id="guide1657"
       inkscape:locked="false" />
  </sodipodi:namedview>
  <defs
     id="defs2" />
  <g
     inkscape:label="Слой 1"
     inkscape:groupmode="layer"
     id="layer1"
     transform="translate(0.00322556,0.00322556)">
    <g
       id="g1">
      <circle
         style="fill:none;stroke:#f1f2ee;stroke-width:0.264421;stroke-miterlimit:4;stroke-dasharray:none;stroke-opacity:1"
         id="path1173"
         cx="5.2884407"
         cy="5.2884407"
         r="5.1594558" />
      <g
         id="g2"
         transform="matrix(0.14025355,0,0,0.14025355,2.4865957,2.4866659)"
         style="fill:#f1f2ee;fill-opacity:1">
        <path
           d="m 38.682,7.344 c -0.488,-0.149 -1.02,0.039 -1.3,0.465 l -0.87,1.307 C 32.895,3.655 26.691,0.193 20,0.193 11.86,0.193 4.433,5.311 1.52,12.927 0.916,14.505 1.707,16.273 3.285,16.877 4.863,17.479 6.631,16.69 7.235,15.112 9.248,9.848 14.378,6.311 20,6.311 c 4.594,0 8.857,2.363 11.361,6.099 l -1.396,0.215 c -0.506,0.079 -0.9,0.481 -0.968,0.989 -0.069,0.508 0.204,1 0.671,1.21 l 8.157,3.67 c 0.008,0.003 0.016,0.004 0.022,0.006 0.145,0.067 0.303,0.107 0.473,0.107 0.518,0 0.951,-0.353 1.08,-0.83 0.035,-0.107 0.058,-0.219 0.059,-0.333 L 39.5,8.457 C 39.505,7.944 39.17,7.492 38.682,7.344 Z"
           id="path1"
           style="fill:#f1f2ee;fill-opacity:1" />
        <path
           d="m 36.715,23.122 c -1.58,-0.604 -3.346,0.188 -3.949,1.767 -2.013,5.264 -7.144,8.801 -12.766,8.801 -4.595,0 -8.858,-2.362 -11.362,-6.1 l 1.396,-0.216 c 0.507,-0.079 0.9,-0.479 0.968,-0.989 0.069,-0.507 -0.204,-1 -0.671,-1.209 L 2.174,21.505 C 2.166,21.502 2.158,21.501 2.15,21.499 2.007,21.432 1.848,21.393 1.679,21.393 c -0.519,0 -0.952,0.354 -1.082,0.83 -0.033,0.106 -0.056,0.219 -0.057,0.332 L 0.5,31.543 c -0.005,0.514 0.331,0.965 0.818,1.111 0.489,0.15 1.019,-0.037 1.301,-0.465 l 0.87,-1.309 c 3.616,5.462 9.818,8.926 16.511,8.926 8.141,0 15.566,-5.119 18.479,-12.736 0.604,-1.576 -0.186,-3.343 -1.764,-3.948 z"
           id="path2"
           style="fill:#f1f2ee;fill-opacity:1" />
      </g>
    </g>
  </g>
</svg>
