<?xml version="1.0" encoding="UTF-8" standalone="no"?>
<!-- Created with Inkscape (http://www.inkscape.org/) -->

<svg
   width="50"
   height="50"
   viewBox="0 0 13.229166 13.229168"
   version="1.1"
   id="svg5"
   sodipodi:docname="theme.svg"
   inkscape:version="1.3 (0e150ed6c4, 2023-07-21)"
   xmlns:inkscape="http://www.inkscape.org/namespaces/inkscape"
   xmlns:sodipodi="http://sodipodi.sourceforge.net/DTD/sodipodi-0.dtd"
   xmlns="http://www.w3.org/2000/svg"
   xmlns:svg="http://www.w3.org/2000/svg">
  <sodipodi:namedview
     id="namedview7"
     pagecolor="#505050"
     bordercolor="#eeeeee"
     borderopacity="1"
     inkscape:pageshadow="0"
     inkscape:pageopacity="0"
     inkscape:pagecheckerboard="0"
     inkscape:document-units="px"
     showgrid="true"
     units="px"
     inkscape:snap-bbox="true"
     inkscape:bbox-paths="true"
     inkscape:bbox-nodes="true"
     inkscape:snap-bbox-edge-midpoints="true"
     inkscape:snap-bbox-midpoints="true"
     inkscape:snap-center="true"
     inkscape:snap-object-midpoints="true"
     showguides="true"
     inkscape:guide-bbox="true"
     inkscape:zoom="4.8689119"
     inkscape:cx="24.954241"
     inkscape:cy="22.386932"
     inkscape:window-width="1600"
     inkscape:window-height="878"
     inkscape:window-x="-8"
     inkscape:window-y="-8"
     inkscape:window-maximized="1"
     inkscape:current-layer="layer1"
     inkscape:showpageshadow="2"
     inkscape:deskcolor="#d1d1d1">
    <sodipodi:guide
       position="6.6145829,9.7895835"
       orientation="0,-1"
       id="guide1655"
       inkscape:locked="false" />
    <sodipodi:guide
       position="6.6145829,3.4395834"
       orientation="0,-1"
       id="guide1657"
       inkscape:locked="false" />
  </sodipodi:namedview>
  <defs
     id="defs2" />
  <g
     inkscape:label="Слой 1"
     inkscape:groupmode="layer"
     id="layer1">
    <path
       d="m -1.7140955,-4.0430231 v 0.6712737 c 0,0.1128723 -0.04481,0.2209238 -0.124495,0.3006104 -0.07969,0.079694 -0.188022,0.1244954 -0.300611,0.1244954 h -0.842822 c -0.116844,0 -0.228576,0.048211 -0.309119,0.1330049 -0.08026,0.085081 -0.122231,0.1993688 -0.115421,0.3159291 l 0.06267,1.1097022 c 0.01389,0.1778136 -0.04708,0.3533624 -0.168172,0.48438471 -0.121099,0.1310228 -0.291536,0.2053221 -0.469923,0.2053221 -0.178387,0 -0.348541,-0.074582 -0.469923,-0.2053221 -0.121093,-0.13102231 -0.182063,-0.30657111 -0.168167,-0.48438471 l 0.06267,-1.1097022 c 0.00653,-0.1168435 -0.035162,-0.2311316 -0.115416,-0.3159291 -0.08026,-0.085081 -0.191993,-0.1330049 -0.309119,-0.1330049 h -0.842822 c -0.112872,0 -0.220924,-0.04481 -0.30061,-0.1244954 -0.07969,-0.079694 -0.124496,-0.1880213 -0.124496,-0.3006104 v -0.6712737 h 4.536093 z m -4.536093,-0.2835927 V -6.622904 c 0,-0.2348199 0.190294,-0.4253967 0.425397,-0.4253967 h 2.274145 c 0.01305,0 0.02439,0.00879 0.02751,0.021553 l 0.193982,0.7756663 c 0.0031,0.012761 0.01446,0.021553 0.02751,0.021553 0.01305,0 0.02439,-0.00879 0.02751,-0.021553 l 0.193982,-0.7756663 c 0.0031,-0.012761 0.01446,-0.021553 0.02751,-0.021553 h 0.913463 c 0.112872,0 0.220924,0.04481 0.300611,0.1244958 0.07969,0.079693 0.124495,0.1880213 0.124495,0.3006105 v 2.2962881 h -4.536086 z"
       fill-rule="evenodd"
       id="path1-4"
       style="fill:#f5f5f5;fill-opacity:1;stroke-width:0.0726008" />
    <path
       style="fill:none;stroke:#f5f5f5;stroke-width:0.533229;stroke-linecap:round;stroke-linejoin:round;stroke-dasharray:none;stroke-opacity:1;paint-order:stroke fill markers"
       d="m 1.8536075,0.26661424 c -0.87919211,0 -1.58699249,0.70780024 -1.58699249,1.58699246 v 9.5219543 c 0,0.879192 0.70780038,1.586992 1.58699249,1.586992 h 9.5219535 c 0.879192,0 1.586991,-0.7078 1.586991,-1.586992 V 1.8536067 c 0,-0.87919222 -0.707799,-1.58699246 -1.586991,-1.58699246 z"
       id="rect1" />
    <g
       data-name="5"
       id="g3"
       transform="matrix(0.22678571,0,0,0.22678571,2.9860121,2.9860123)"
       style="fill:#f5f5f5;fill-opacity:1">
      <path
         d="M 11,2 H 5 A 3,3 0 0 0 2,5 v 19 a 6,6 0 0 0 12,0 V 5 A 3,3 0 0 0 11,2 Z M 6,7 a 1,1 0 0 1 2,0 v 4 a 1,1 0 0 1 -2,0 z m 2,19 a 2,2 0 1 1 2,-2 2,2 0 0 1 -2,2 z"
         id="path1"
         style="fill:#f5f5f5;fill-opacity:1" />
      <path
         d="m 30,21 v 6 a 3,3 0 0 1 -3,3 H 11.61 a 7.38,7.38 0 0 0 2.13,-2 3.22,3.22 0 0 0 0.25,-0.39 c 0.08,-0.13 0.15,-0.27 0.22,-0.41 v 0 c 0.07,-0.05 0.12,-0.11 0.19,-0.17 l 9.38,-9 H 27 A 3,3 0 0 1 30,21 Z"
         id="path2"
         style="fill:#f5f5f5;fill-opacity:1" />
      <path
         d="M 26,14.46 14.89,25.17 A 5.66,5.66 0 0 0 15,24 V 8.52 L 17.54,6 a 3,3 0 0 1 4.24,0 L 26,10.22 a 3,3 0 0 1 0,4.24 z"
         id="path3"
         style="fill:#f5f5f5;fill-opacity:1" />
    </g>
  </g>
</svg>
